<svg xmlns="http://www.w3.org/2000/svg" xmlns:xlink="http://www.w3.org/1999/xlink" width="500" zoomAndPan="magnify" viewBox="0 0 375 374.999991" height="500" preserveAspectRatio="xMidYMid meet" version="1.0"><defs><g/><clipPath id="a5a0a6c69c"><path d="M 19 98 L 326 98 L 326 233 L 19 233 Z M 19 98 " clip-rule="nonzero"/></clipPath><clipPath id="e0334b483f"><path d="M 41.164062 98.058594 L 328.882812 141.636719 L 307.320312 284.011719 L 19.601562 240.433594 Z M 41.164062 98.058594 " clip-rule="nonzero"/></clipPath><clipPath id="261d12c523"><path d="M -809.171875 -30.734375 L 329.097656 141.667969 L 307.535156 284.042969 L -830.734375 111.644531 Z M -809.171875 -30.734375 " clip-rule="nonzero"/></clipPath><clipPath id="aaec184b61"><path d="M 19 98 L 326 98 L 326 231 L 19 231 Z M 19 98 " clip-rule="nonzero"/></clipPath><clipPath id="2f659464db"><path d="M 41.164062 98.058594 L 328.882812 141.636719 L 307.320312 284.011719 L 19.601562 240.433594 Z M 41.164062 98.058594 " clip-rule="nonzero"/></clipPath><clipPath id="8f7828113d"><path d="M -809.171875 -30.734375 L 329.097656 141.667969 L 307.535156 284.042969 L -830.734375 111.644531 Z M -809.171875 -30.734375 " clip-rule="nonzero"/></clipPath><clipPath id="f9703405c2"><path d="M 19 98 L 324 98 L 324 222 L 19 222 Z M 19 98 " clip-rule="nonzero"/></clipPath><clipPath id="99bd26d1a1"><path d="M 41.164062 98.058594 L 328.882812 141.636719 L 307.320312 284.011719 L 19.601562 240.433594 Z M 41.164062 98.058594 " clip-rule="nonzero"/></clipPath><clipPath id="2ad640c8ff"><path d="M -809.171875 -30.734375 L 329.097656 141.667969 L 307.535156 284.042969 L -830.734375 111.644531 Z M -809.171875 -30.734375 " clip-rule="nonzero"/></clipPath><clipPath id="6785d0f798"><path d="M 30 99 L 71 99 L 71 140 L 30 140 Z M 30 99 " clip-rule="nonzero"/></clipPath><clipPath id="7f02c3b2bf"><path d="M 45.316406 92.078125 L 77.960938 114.757812 L 55.28125 147.402344 L 22.636719 124.722656 Z M 45.316406 92.078125 " clip-rule="nonzero"/></clipPath><clipPath id="be9afd1b2e"><path d="M 61.636719 103.417969 C 52.625 97.15625 40.238281 99.386719 33.976562 108.402344 C 27.714844 117.414062 29.945312 129.800781 38.960938 136.0625 C 47.972656 142.324219 60.359375 140.09375 66.621094 131.082031 C 72.882812 122.066406 70.652344 109.683594 61.636719 103.417969 " clip-rule="nonzero"/></clipPath><clipPath id="a4355289b4"><path d="M 307 130 L 348 130 L 348 171 L 307 171 Z M 307 130 " clip-rule="nonzero"/></clipPath><clipPath id="3ac4c7d86d"><path d="M 322.738281 122.949219 L 355.382812 145.628906 L 332.703125 178.269531 L 300.0625 155.59375 Z M 322.738281 122.949219 " clip-rule="nonzero"/></clipPath><clipPath id="f28a0b18b7"><path d="M 339.0625 134.289062 C 330.046875 128.027344 317.664062 130.257812 311.402344 139.269531 C 305.136719 148.285156 307.367188 160.667969 316.382812 166.933594 C 325.398438 173.195312 337.78125 170.964844 344.042969 161.949219 C 350.304688 152.9375 348.074219 140.550781 339.0625 134.289062 " clip-rule="nonzero"/></clipPath><clipPath id="f52b4d76c7"><path d="M 189 169 L 240 169 L 240 220 L 189 220 Z M 189 169 " clip-rule="nonzero"/></clipPath><clipPath id="04c439a57a"><path d="M 208.363281 160.3125 L 248.960938 188.519531 L 220.753906 229.121094 L 180.15625 200.914062 Z M 208.363281 160.3125 " clip-rule="nonzero"/></clipPath><clipPath id="ddeed99b6b"><path d="M 228.660156 174.417969 C 217.449219 166.628906 202.046875 169.402344 194.257812 180.613281 C 186.46875 191.824219 189.242188 207.226562 200.457031 215.015625 C 211.667969 222.804688 227.070312 220.03125 234.859375 208.820312 C 242.648438 197.609375 239.871094 182.207031 228.660156 174.417969 " clip-rule="nonzero"/></clipPath><clipPath id="ca7d405973"><path d="M 197 177 L 232 177 L 232 213 L 197 213 Z M 197 177 " clip-rule="nonzero"/></clipPath><clipPath id="e6485a4cac"><path d="M 210.1875 170.445312 L 238.832031 190.34375 L 218.933594 218.984375 L 190.289062 199.085938 Z M 210.1875 170.445312 " clip-rule="nonzero"/></clipPath><clipPath id="ae59d98cd4"><path d="M 224.511719 180.394531 C 216.601562 174.898438 205.734375 176.855469 200.238281 184.765625 C 194.742188 192.675781 196.703125 203.542969 204.609375 209.035156 C 212.519531 214.53125 223.386719 212.574219 228.882812 204.664062 C 234.375 196.753906 232.417969 185.890625 224.511719 180.394531 " clip-rule="nonzero"/></clipPath><clipPath id="50d9e63e45"><path d="M 25 17 L 75 17 L 75 92 L 25 92 Z M 25 17 " clip-rule="nonzero"/></clipPath><clipPath id="5dba1d4b2c"><path d="M 24.578125 17.449219 L 74.820312 16.535156 L 76.179688 91.523438 L 25.9375 92.4375 Z M 24.578125 17.449219 " clip-rule="nonzero"/></clipPath><clipPath id="9e8a1772eb"><path d="M 24.578125 17.449219 L 74.820312 16.535156 L 76.179688 91.523438 L 25.9375 92.4375 Z M 24.578125 17.449219 " clip-rule="nonzero"/></clipPath><clipPath id="f75f4b9915"><path d="M 25 16 L 76 16 L 76 92 L 25 92 Z M 25 16 " clip-rule="nonzero"/></clipPath><clipPath id="f81afe524f"><path d="M 24.578125 17.449219 L 74.820312 16.535156 L 76.179688 91.523438 L 25.9375 92.4375 Z M 24.578125 17.449219 " clip-rule="nonzero"/></clipPath><clipPath id="7e373ca7fe"><path d="M 24.578125 17.449219 L 74.820312 16.535156 L 76.179688 91.523438 L 25.9375 92.4375 Z M 24.578125 17.449219 " clip-rule="nonzero"/></clipPath></defs><rect x="-37.5" width="450" fill="#ffffff" y="-37.499999" height="449.999989" fill-opacity="1"/><rect x="-37.5" width="450" fill="#ffffff" y="-37.499999" height="449.999989" fill-opacity="1"/><rect x="-37.5" width="450" fill="#ffffff" y="-37.499999" height="449.999989" fill-opacity="1"/><g clip-path="url(#a5a0a6c69c)"><g clip-path="url(#e0334b483f)"><g clip-path="url(#261d12c523)"><path fill="#05d47d" d="M -414.515625 174.683594 C -449.125 169.441406 -471.125 139.019531 -490.40625 112.015625 C -502.621094 94.886719 -514.257812 78.535156 -527.304688 71.464844 C -560.375 53.027344 -579.804688 62.125 -600.496094 71.957031 C -620.183594 81.246094 -642.375 91.777344 -672.316406 74.046875 C -690.34375 63.210938 -703.570312 51.25 -716.417969 39.8125 C -740.398438 17.886719 -761.402344 -0.808594 -808.90625 -8 L -805.546875 -30.183594 C -751.257812 -21.960938 -726.019531 0.847656 -701.390625 23.101562 C -689.382812 33.949219 -676.953125 45.09375 -660.859375 54.941406 C -641.351562 66.695312 -628.128906 60.363281 -609.9375 51.773438 C -587.488281 41.046875 -559.320312 27.714844 -516.230469 51.839844 C -498.9375 61.40625 -485.957031 79.582031 -472.242188 99.023438 C -454.109375 124.460938 -435.40625 150.679688 -408.214844 152.945312 C -383.769531 155.027344 -351.976562 137.613281 -314.261719 100.953125 C -282.515625 70.105469 -248.808594 59.925781 -211.007812 70.050781 C -179.660156 78.503906 -150.496094 99.824219 -124.902344 118.753906 C -101.171875 136.238281 -78.695312 152.839844 -61.296875 154.085938 C -46.875 155.113281 -37.9375 146.511719 -24.710938 132.539062 C -8.417969 115.09375 11.726562 93.601562 49.804688 109.554688 C 64.605469 115.734375 73.707031 125.910156 76.730469 139.566406 C 79 150.5625 77.058594 161.84375 75.1875 172.675781 C 71.339844 195.015625 71.375 202.429688 86.308594 207.703125 C 104.570312 213.941406 111.007812 206.582031 121.398438 194.492188 C 133.457031 180.574219 149.957031 161.769531 186.410156 174.703125 C 211.023438 183.292969 229.085938 186.261719 239.984375 183.046875 C 247.738281 180.75 251.695312 176.023438 257.625 167.425781 C 267.839844 153.460938 281.589844 134.472656 325.472656 141.121094 L 322.113281 163.300781 C 291.574219 158.675781 285.089844 167.882812 276.019531 180.402344 C 269.832031 189.1875 261.941406 200.035156 246.242188 204.371094 C 230.511719 208.9375 209.179688 206.167969 179.082031 195.589844 C 156.886719 187.828125 149.375 196.183594 138.164062 209.074219 C 128.363281 220.324219 115.195312 235.464844 90.539062 231.730469 C 86.917969 231.179688 82.914062 230.109375 78.945312 228.816406 C 63.785156 223.507812 54.769531 214.269531 51.679688 201.066406 C 49.34375 190.527344 51.25 179.46875 53.085938 168.863281 C 57 146.070312 57.015625 136.8125 41.121094 130.238281 C 18.261719 120.753906 8.347656 129.671875 -8.503906 147.726562 C -21.203125 161.316406 -37.203125 178.34375 -63.039062 176.285156 C -87.066406 174.496094 -111.824219 156.160156 -138.253906 136.644531 C -188.832031 99.34375 -241.085938 60.867188 -298.832031 116.722656 C -342.222656 158.773438 -378.65625 177.800781 -410.40625 175.074219 C -411.765625 174.867188 -413.15625 174.890625 -414.515625 174.683594 Z M -414.515625 174.683594 " fill-opacity="1" fill-rule="nonzero"/></g></g></g><g clip-path="url(#aaec184b61)"><g clip-path="url(#2f659464db)"><g clip-path="url(#8f7828113d)"><path fill="#e6e6e6" d="M 322.457031 161.039062 L 322.285156 162.171875 C 291.070312 157.441406 284.027344 167.257812 275.183594 179.8125 C 268.734375 188.792969 261.398438 199.027344 246.15625 203.433594 C 230.457031 207.769531 209.351562 205.035156 179.707031 194.527344 C 156.640625 186.402344 149.058594 195.210938 137.589844 208.292969 C 127.820312 219.316406 115.171875 234.070312 90.96875 230.40625 C 87.351562 229.855469 83.574219 228.820312 79.605469 227.527344 C 46.183594 215.980469 51.007812 188.695312 54.476562 168.84375 C 58.152344 147.636719 59.1875 136.214844 41.777344 128.945312 C 18.273438 119.136719 7.773438 128.890625 -9.042969 146.71875 C -22.300781 160.917969 -37.449219 176.917969 -62.605469 174.960938 C -86.179688 173.242188 -110.9375 154.902344 -137.402344 135.613281 C -188.402344 98.019531 -241.070312 59.246094 -299.40625 115.9375 C -342.539062 157.800781 -378.710938 176.632812 -410.011719 173.976562 C -411.367188 173.769531 -412.757812 173.792969 -414.117188 173.585938 C -448.273438 168.414062 -470.082031 138.25 -489.136719 111.285156 C -501.542969 93.890625 -513.21875 77.765625 -526.191406 70.246094 C -559.683594 51.511719 -579.371094 60.800781 -600.328125 70.824219 C -619.789062 80.148438 -641.976562 90.679688 -671.238281 73.050781 C -689.039062 62.25 -702.269531 50.289062 -715.113281 38.851562 C -739.808594 17.050781 -760.777344 -1.871094 -808.734375 -9.132812 L -808.5625 -10.265625 C -760.378906 -2.96875 -739.1875 15.988281 -714.976562 37.945312 C -702.132812 49.386719 -689.128906 61.3125 -671.328125 72.113281 C -642.484375 89.445312 -620.78125 79.074219 -601.582031 69.941406 C -580.398438 59.949219 -560.417969 50.242188 -526.316406 69.53125 C -513.082031 76.863281 -501.25 93.472656 -488.84375 110.863281 C -469.753906 137.605469 -448.136719 167.507812 -414.429688 172.613281 C -413.074219 172.816406 -411.71875 173.023438 -410.324219 173.003906 C -379.289062 175.851562 -343.339844 156.984375 -300.46875 115.316406 C -273.878906 89.472656 -247.179688 81.246094 -216.476562 89.367188 C -188.910156 96.785156 -162.476562 116.300781 -137.074219 134.96875 C -110.835938 154.226562 -86.304688 172.527344 -62.957031 174.210938 C -38.253906 176.101562 -23.363281 160.296875 -10.367188 146.289062 C 5.339844 129.679688 16.410156 117.695312 41.65625 128.234375 C 59.9375 135.863281 58.640625 147.476562 54.863281 169.363281 C 51.425781 188.988281 46.929688 215.628906 79.253906 226.777344 C 110.257812 237.496094 124.570312 220.90625 136.039062 207.824219 C 147.507812 194.742188 155.644531 185.324219 179.355469 193.777344 C 208.808594 204.027344 229.65625 206.953125 245.125 202.582031 C 260.109375 198.367188 267.183594 188.324219 273.636719 179.347656 C 283.488281 166.25 290.789062 156.242188 322.457031 161.039062 Z M 258.6875 168.050781 C 253.152344 175.550781 248.992188 181.632812 240.300781 184.023438 C 228.949219 187.164062 211.304688 184.492188 186.046875 175.574219 C 150.238281 162.972656 134 181.582031 122.234375 195.082031 C 111.324219 207.554688 104.851562 215.140625 85.945312 208.574219 C 70.105469 203.164062 70.207031 194.84375 74.089844 172.277344 C 77.628906 151.972656 82.523438 124.234375 49.441406 110.425781 C 12.007812 94.800781 -7.875 116.101562 -23.875 133.128906 C -35.46875 145.496094 -45.65625 156.226562 -61.46875 155.21875 C -79.316406 153.90625 -101.792969 137.300781 -125.714844 119.554688 C -151.3125 100.628906 -180.25 79.34375 -211.597656 70.890625 C -248.722656 60.867188 -282.164062 70.851562 -313.652344 101.511719 C -351.628906 138.363281 -383.679688 155.96875 -408.578125 153.816406 C -435.960938 151.289062 -454.894531 125.039062 -473.214844 99.339844 C -486.964844 80.121094 -499.980469 62.175781 -516.820312 52.675781 C -559.492188 28.847656 -587.171875 42.023438 -609.585938 52.519531 C -628.039062 61.300781 -641.488281 67.601562 -661.414062 55.550781 C -677.734375 45.671875 -690.164062 34.527344 -702.171875 23.679688 C -726.640625 1.910156 -751.878906 -20.898438 -805.714844 -29.050781 L -805.886719 -27.921875 C -752.277344 -19.800781 -727.230469 2.746094 -703.023438 24.707031 C -690.785156 35.589844 -678.394531 46.960938 -662.074219 56.84375 C -641.503906 69.21875 -628.019531 62.695312 -609.078125 53.753906 C -586.890625 43.222656 -559.472656 30.242188 -517.445312 53.742188 C -500.605469 63.238281 -487.8125 81.152344 -474.03125 100.140625 C -455.480469 125.875 -436.394531 152.613281 -408.523438 154.984375 C -382.949219 157.238281 -351.640625 139.980469 -312.847656 102.324219 C -281.660156 72.085938 -248.667969 62.03125 -211.769531 72.019531 C -180.875 80.40625 -151.933594 101.691406 -126.304688 120.390625 C -102.382812 138.140625 -79.679688 154.777344 -61.378906 156.160156 C -45.148438 157.460938 -34.925781 146.503906 -23.039062 133.71875 C -7.300781 116.882812 12.289062 96 49.078125 111.296875 C 81.289062 124.742188 76.460938 152.027344 72.992188 171.878906 C 69.078125 194.671875 69.097656 203.707031 85.582031 209.445312 C 105.167969 216.117188 112.417969 207.953125 123.070312 195.671875 C 134.574219 182.363281 150.519531 164.171875 185.683594 176.445312 C 240.171875 195.578125 248.683594 183.671875 259.558594 168.414062 C 269.996094 154.484375 282.605469 136.941406 325.128906 143.382812 L 325.300781 142.25 C 282.097656 135.707031 269.195312 153.667969 258.6875 168.050781 Z M 258.6875 168.050781 " fill-opacity="1" fill-rule="nonzero"/></g></g></g><g clip-path="url(#f9703405c2)"><g clip-path="url(#99bd26d1a1)"><g clip-path="url(#2ad640c8ff)"><path fill="#363636" d="M 321.914062 152.390625 C 321.6875 152.355469 321.496094 152.09375 321.53125 151.867188 C 321.566406 151.640625 321.824219 151.449219 322.050781 151.484375 C 322.730469 151.585938 323.863281 151.757812 323.863281 151.757812 L 323.691406 152.890625 C 323.722656 152.664062 322.59375 152.492188 321.914062 152.390625 Z M -414.871094 163.285156 C -414.835938 163.058594 -415.027344 162.796875 -415.21875 162.535156 C -416.351562 162.363281 -417.671875 161.933594 -418.804688 161.761719 C -419.03125 161.726562 -419.515625 161.886719 -419.550781 162.113281 C -419.585938 162.339844 -419.429688 162.824219 -419.203125 162.859375 C -418.105469 163.257812 -416.746094 163.460938 -415.617188 163.632812 C -415.164062 163.703125 -414.902344 163.511719 -414.871094 163.285156 Z M -409.960938 164.492188 C -408.832031 164.660156 -407.4375 164.640625 -406.308594 164.8125 C -406.082031 164.847656 -405.820312 164.65625 -405.753906 164.203125 C -405.71875 163.976562 -405.910156 163.714844 -406.363281 163.644531 C -407.527344 163.703125 -408.886719 163.496094 -410.015625 163.324219 C -410.242188 163.289062 -410.503906 163.480469 -410.570312 163.933594 C -410.605469 164.160156 -410.414062 164.421875 -409.960938 164.492188 Z M -423.972656 160.746094 C -423.9375 160.519531 -424.097656 160.035156 -424.324219 160 C -425.417969 159.601562 -426.515625 159.203125 -427.804688 158.546875 C -428.03125 158.511719 -428.484375 158.445312 -428.550781 158.894531 C -428.585938 159.121094 -428.65625 159.574219 -428.203125 159.644531 C -427.105469 160.042969 -425.816406 160.699219 -424.71875 161.097656 C -424.71875 161.097656 -424.71875 161.097656 -424.492188 161.132812 C -424.265625 161.167969 -424.007812 160.972656 -423.972656 160.746094 Z M -400.515625 164.761719 C -399.351562 164.707031 -397.960938 164.6875 -396.757812 164.40625 C -396.535156 164.441406 -396.238281 164.023438 -396.203125 163.796875 C -396.171875 163.570312 -396.589844 163.273438 -396.816406 163.238281 C -397.980469 163.296875 -399.40625 163.542969 -400.570312 163.597656 C -400.796875 163.5625 -401.09375 163.980469 -401.125 164.207031 C -401.160156 164.433594 -400.96875 164.695312 -400.515625 164.761719 C -400.742188 164.730469 -400.742188 164.730469 -400.515625 164.761719 Z M -391.316406 163.609375 C -390.117188 163.328125 -388.917969 163.046875 -387.71875 162.765625 C -387.457031 162.574219 -387.199219 162.382812 -387.390625 162.121094 C -387.582031 161.859375 -387.773438 161.597656 -388.035156 161.792969 C -389.234375 162.074219 -390.433594 162.355469 -391.632812 162.636719 C -391.859375 162.601562 -392.152344 163.019531 -391.960938 163.28125 C -391.960938 163.28125 -391.769531 163.542969 -391.316406 163.609375 C -391.542969 163.574219 -391.316406 163.609375 -391.316406 163.609375 Z M -432.417969 156.921875 C -432.382812 156.695312 -432.316406 156.242188 -432.539062 156.207031 C -433.601562 155.585938 -434.664062 154.960938 -435.726562 154.335938 C -435.921875 154.074219 -436.40625 154.234375 -436.441406 154.460938 C -436.703125 154.652344 -436.542969 155.140625 -436.316406 155.171875 C -435.253906 155.796875 -434.191406 156.421875 -433.128906 157.046875 C -433.128906 157.046875 -432.902344 157.078125 -432.902344 157.078125 C -432.679688 157.113281 -432.453125 157.148438 -432.417969 156.921875 Z M -382.171875 161.289062 C -380.972656 161.007812 -379.738281 160.5 -378.539062 160.21875 C -378.28125 160.027344 -378.019531 159.835938 -378.210938 159.574219 C -378.402344 159.3125 -378.59375 159.054688 -378.855469 159.246094 C -380.089844 159.753906 -381.289062 160.035156 -382.261719 160.351562 C -382.523438 160.542969 -382.78125 160.734375 -382.589844 160.996094 C -382.625 161.222656 -382.398438 161.253906 -382.171875 161.289062 C -382.398438 161.253906 -382.398438 161.253906 -382.171875 161.289062 Z M -440.203125 151.804688 C -439.945312 151.613281 -440.101562 151.125 -440.328125 151.09375 C -441.390625 150.46875 -442.191406 149.652344 -443.21875 148.800781 C -443.414062 148.542969 -443.898438 148.699219 -443.933594 148.925781 C -444.195312 149.117188 -444.035156 149.605469 -443.808594 149.640625 C -442.78125 150.488281 -441.71875 151.113281 -440.917969 151.929688 C -440.917969 151.929688 -440.691406 151.964844 -440.691406 151.964844 C -440.5 152.222656 -440.238281 152.03125 -440.203125 151.804688 Z M -373.34375 157.996094 C -372.109375 157.488281 -371.101562 156.945312 -369.867188 156.4375 C -369.609375 156.246094 -369.574219 156.019531 -369.539062 155.792969 C -369.730469 155.535156 -369.957031 155.5 -370.183594 155.464844 C -371.417969 155.972656 -372.425781 156.515625 -373.660156 157.023438 C -373.917969 157.214844 -374.179688 157.40625 -373.988281 157.667969 C -374.023438 157.894531 -373.796875 157.929688 -373.570312 157.960938 C -373.570312 157.960938 -373.570312 157.960938 -373.34375 157.996094 Z M -447.4375 146.078125 C -447.175781 145.886719 -447.332031 145.402344 -447.558594 145.367188 C -448.359375 144.550781 -449.390625 143.699219 -450.191406 142.882812 C -450.382812 142.625 -450.835938 142.554688 -450.902344 143.007812 C -451.164062 143.199219 -451.234375 143.652344 -450.78125 143.71875 C -449.980469 144.535156 -448.949219 145.386719 -447.921875 146.238281 C -447.921875 146.238281 -447.695312 146.273438 -447.695312 146.273438 C -447.695312 146.273438 -447.695312 146.273438 -447.4375 146.078125 Z M -364.863281 153.953125 C -363.855469 153.414062 -362.621094 152.90625 -361.582031 152.136719 C -361.320312 151.945312 -361.285156 151.71875 -361.476562 151.457031 C -361.671875 151.195312 -361.894531 151.164062 -362.15625 151.355469 C -363.164062 151.898438 -364.433594 152.632812 -365.441406 153.171875 C -365.699219 153.367188 -365.734375 153.589844 -365.769531 153.816406 C -365.804688 154.042969 -365.578125 154.078125 -365.351562 154.113281 C -365.125 154.148438 -365.125 154.148438 -364.863281 153.953125 Z M -454.113281 139.742188 C -453.851562 139.550781 -453.78125 139.097656 -454.007812 139.0625 C -454.8125 138.246094 -455.804688 137.171875 -456.605469 136.355469 C -456.800781 136.09375 -457.25 136.027344 -457.285156 136.253906 C -457.546875 136.445312 -457.613281 136.898438 -457.386719 136.929688 C -456.585938 137.746094 -455.59375 138.824219 -454.789062 139.640625 C -454.789062 139.640625 -454.597656 139.902344 -454.597656 139.902344 C -454.5625 139.675781 -454.339844 139.707031 -454.113281 139.742188 Z M 93.734375 221.328125 C 95.089844 221.535156 96.253906 221.480469 97.386719 221.652344 C 97.613281 221.6875 97.871094 221.492188 97.941406 221.042969 C 97.976562 220.816406 97.785156 220.554688 97.332031 220.484375 C 96.167969 220.539062 95.035156 220.371094 93.679688 220.164062 C 93.453125 220.128906 93.191406 220.320312 93.121094 220.773438 C 93.089844 221 93.28125 221.261719 93.734375 221.328125 Z M 88.859375 219.898438 C 88.894531 219.671875 88.734375 219.183594 88.507812 219.148438 C 87.378906 218.976562 86.054688 218.546875 84.957031 218.148438 C 84.730469 218.113281 84.246094 218.273438 84.210938 218.5 C 84.175781 218.726562 84.335938 219.210938 84.5625 219.246094 C 85.882812 219.679688 86.980469 220.074219 88.113281 220.246094 C 88.5625 220.316406 88.824219 220.125 88.859375 219.898438 Z M 102.988281 221.34375 C 104.1875 221.0625 105.386719 220.78125 106.585938 220.5 C 106.84375 220.304688 107.105469 220.113281 106.914062 219.851562 C 106.722656 219.59375 106.53125 219.332031 106.269531 219.523438 C 105.070312 219.804688 103.871094 220.085938 102.671875 220.367188 C 102.445312 220.335938 102.148438 220.753906 102.117188 220.980469 C 102.566406 221.046875 102.761719 221.308594 102.988281 221.34375 Z M 80.015625 217.167969 C 80.050781 216.941406 80.121094 216.488281 79.667969 216.421875 C 78.570312 216.023438 77.28125 215.363281 76.445312 214.777344 C 76.21875 214.742188 75.765625 214.671875 75.730469 214.898438 C 75.699219 215.125 75.628906 215.578125 75.855469 215.613281 C 76.917969 216.238281 78.015625 216.632812 79.304688 217.292969 C 79.304688 217.292969 79.304688 217.292969 79.53125 217.328125 C 79.496094 217.554688 79.757812 217.359375 80.015625 217.167969 Z M -356.804688 149.617188 C -355.796875 149.078125 -354.753906 148.308594 -353.519531 147.800781 C -353.257812 147.609375 -353.226562 147.382812 -353.417969 147.121094 C -353.609375 146.859375 -353.835938 146.828125 -354.09375 147.019531 C -355.136719 147.789062 -356.144531 148.328125 -357.152344 148.871094 C -357.414062 149.0625 -357.449219 149.289062 -357.253906 149.550781 C -357.289062 149.777344 -357.0625 149.8125 -356.835938 149.84375 C -357.027344 149.585938 -356.804688 149.617188 -356.804688 149.617188 Z M -460.460938 132.761719 C -460.199219 132.570312 -460.128906 132.117188 -460.355469 132.082031 C -461.125 131.039062 -461.925781 130.222656 -462.695312 129.179688 C -462.886719 128.921875 -463.339844 128.851562 -463.371094 129.078125 C -463.632812 129.269531 -463.703125 129.722656 -463.476562 129.757812 C -462.707031 130.800781 -461.90625 131.617188 -461.136719 132.660156 C -461.136719 132.660156 -460.945312 132.917969 -460.71875 132.953125 C -460.71875 132.953125 -460.460938 132.761719 -460.460938 132.761719 Z M 71.902344 212.699219 C 72.160156 212.503906 72.003906 212.019531 71.777344 211.984375 C 70.75 211.132812 69.945312 210.316406 69.144531 209.503906 C 68.953125 209.242188 68.5 209.171875 68.464844 209.398438 C 68.207031 209.589844 68.136719 210.042969 68.363281 210.078125 C 69.164062 210.894531 70.195312 211.746094 71.222656 212.59375 C 71.222656 212.59375 71.449219 212.628906 71.449219 212.628906 C 71.414062 212.855469 71.640625 212.890625 71.902344 212.699219 Z M 111.972656 218.535156 C 112.980469 217.992188 114.25 217.257812 115.257812 216.71875 C 115.515625 216.527344 115.550781 216.300781 115.359375 216.039062 C 115.167969 215.777344 114.941406 215.742188 114.679688 215.9375 C 113.640625 216.703125 112.632812 217.246094 111.625 217.789062 C 111.363281 217.980469 111.328125 218.207031 111.292969 218.433594 C 111.261719 218.660156 111.484375 218.695312 111.710938 218.726562 C 111.746094 218.5 111.972656 218.535156 111.972656 218.535156 Z M -348.863281 144.570312 C -347.824219 143.800781 -346.816406 143.257812 -345.773438 142.492188 C -345.511719 142.296875 -345.480469 142.070312 -345.671875 141.8125 C -345.863281 141.550781 -346.089844 141.515625 -346.347656 141.707031 C -347.390625 142.476562 -348.398438 143.019531 -349.441406 143.789062 C -349.703125 143.980469 -349.734375 144.207031 -349.542969 144.464844 C -349.578125 144.691406 -349.351562 144.726562 -349.125 144.761719 C -349.125 144.761719 -348.863281 144.570312 -348.863281 144.570312 Z M -466.320312 125.621094 C -466.058594 125.429688 -465.992188 124.976562 -466.214844 124.941406 C -466.984375 123.902344 -467.785156 123.085938 -468.554688 122.042969 C -468.746094 121.78125 -469.199219 121.710938 -469.234375 121.9375 C -469.492188 122.132812 -469.5625 122.585938 -469.335938 122.617188 C -468.566406 123.660156 -467.800781 124.703125 -467 125.519531 C -467 125.519531 -466.804688 125.78125 -466.578125 125.8125 C -466.546875 125.585938 -466.546875 125.585938 -466.320312 125.621094 Z M 65.554688 205.714844 C 65.8125 205.523438 65.847656 205.296875 65.65625 205.039062 C 65.113281 204.027344 64.609375 202.792969 64.066406 201.785156 C 63.875 201.527344 63.683594 201.265625 63.421875 201.457031 C 63.160156 201.648438 62.902344 201.839844 63.09375 202.101562 C 63.601562 203.335938 64.105469 204.570312 64.648438 205.578125 C 64.613281 205.804688 64.839844 205.839844 65.066406 205.875 C 65.292969 205.910156 65.519531 205.941406 65.554688 205.714844 Z M 119.945312 213.261719 C 120.761719 212.457031 121.804688 211.6875 122.652344 210.660156 C 122.914062 210.46875 122.980469 210.015625 122.753906 209.980469 C 122.5625 209.71875 122.113281 209.652344 122.078125 209.878906 C 121.226562 210.90625 120.183594 211.675781 119.371094 212.476562 C 119.109375 212.671875 119.039062 213.121094 119.265625 213.15625 C 119.265625 213.15625 119.457031 213.417969 119.683594 213.453125 C 119.492188 213.191406 119.71875 213.226562 119.945312 213.261719 Z M -341.117188 139.257812 C -340.078125 138.492188 -339.035156 137.722656 -337.992188 136.953125 C -337.734375 136.761719 -337.664062 136.308594 -337.890625 136.273438 C -338.082031 136.015625 -338.535156 135.945312 -338.570312 136.171875 C -339.609375 136.941406 -340.652344 137.710938 -341.46875 138.511719 C -341.730469 138.703125 -341.761719 138.929688 -341.570312 139.191406 C -341.570312 139.191406 -341.378906 139.453125 -341.152344 139.484375 C -341.378906 139.453125 -341.34375 139.226562 -341.117188 139.257812 Z M -472.113281 118.03125 C -471.851562 117.839844 -471.78125 117.386719 -472.007812 117.351562 C -472.777344 116.308594 -473.542969 115.265625 -474.3125 114.222656 C -474.503906 113.964844 -474.730469 113.929688 -474.992188 114.121094 C -475.25 114.3125 -475.285156 114.539062 -475.09375 114.800781 C -474.324219 115.84375 -473.558594 116.886719 -472.789062 117.925781 C -472.789062 117.925781 -472.597656 118.1875 -472.371094 118.222656 C -472.371094 118.222656 -472.144531 118.257812 -472.113281 118.03125 Z M 62.457031 197.144531 C 62.683594 197.175781 62.976562 196.757812 63.011719 196.53125 C 62.730469 195.332031 62.675781 194.167969 62.65625 192.773438 C 62.6875 192.546875 62.269531 192.253906 62.042969 192.21875 C 61.820312 192.183594 61.523438 192.601562 61.488281 192.828125 C 61.511719 194.222656 61.789062 195.421875 61.84375 196.585938 C 61.8125 196.8125 62.003906 197.074219 62.457031 197.144531 C 62.230469 197.109375 62.230469 197.109375 62.457031 197.144531 Z M 126.503906 206.613281 C 127.355469 205.582031 128.171875 204.78125 129.019531 203.75 C 129.28125 203.558594 129.125 203.074219 128.898438 203.039062 C 128.707031 202.777344 128.21875 202.9375 128.183594 203.160156 C 127.335938 204.191406 126.519531 204.992188 125.667969 206.023438 C 125.410156 206.214844 125.566406 206.703125 125.792969 206.734375 C 125.792969 206.734375 126.019531 206.769531 126.019531 206.769531 C 126.246094 206.804688 126.503906 206.613281 126.503906 206.613281 Z M -333.792969 133.65625 C -332.75 132.886719 -331.933594 132.082031 -330.890625 131.316406 C -330.632812 131.121094 -330.5625 130.671875 -330.789062 130.636719 C -330.980469 130.375 -331.433594 130.308594 -331.46875 130.535156 C -332.507812 131.300781 -333.324219 132.105469 -334.367188 132.871094 C -334.628906 133.066406 -334.695312 133.515625 -334.46875 133.550781 C -334.46875 133.550781 -334.277344 133.8125 -334.050781 133.847656 C -334.015625 133.621094 -333.792969 133.65625 -333.792969 133.65625 Z M -477.449219 110.507812 C -477.191406 110.3125 -477.15625 110.089844 -477.347656 109.828125 L -479.425781 106.734375 C -479.617188 106.472656 -479.84375 106.4375 -480.105469 106.632812 C -480.363281 106.824219 -480.398438 107.050781 -480.207031 107.3125 L -478.128906 110.402344 C -478.128906 110.402344 -477.9375 110.664062 -477.710938 110.699219 C -477.710938 110.699219 -477.710938 110.699219 -477.449219 110.507812 Z M 132.683594 199.445312 C 133.53125 198.414062 134.347656 197.613281 135.199219 196.582031 C 135.457031 196.390625 135.300781 195.902344 135.074219 195.871094 C 134.882812 195.609375 134.394531 195.765625 134.363281 195.992188 C 133.511719 197.023438 132.695312 197.824219 131.84375 198.855469 C 131.585938 199.046875 131.742188 199.53125 131.96875 199.566406 C 131.96875 199.566406 132.195312 199.601562 132.195312 199.601562 C 132.421875 199.636719 132.648438 199.671875 132.683594 199.445312 Z M 62.015625 187.816406 C 62.242188 187.847656 62.503906 187.65625 62.574219 187.203125 C 62.742188 186.074219 62.6875 184.90625 62.894531 183.546875 C 62.929688 183.320312 62.738281 183.0625 62.285156 182.992188 C 62.058594 182.957031 61.796875 183.152344 61.730469 183.601562 C 61.523438 184.960938 61.578125 186.128906 61.40625 187.257812 C 61.371094 187.484375 61.566406 187.746094 62.015625 187.816406 C 61.792969 187.78125 61.792969 187.78125 62.015625 187.816406 Z M -326.394531 127.597656 C -325.351562 126.828125 -324.535156 126.027344 -323.496094 125.257812 C -323.234375 125.066406 -323.164062 124.613281 -323.390625 124.578125 C -323.585938 124.316406 -324.035156 124.25 -324.070312 124.476562 C -325.113281 125.242188 -325.929688 126.046875 -326.96875 126.816406 C -327.230469 127.007812 -327.300781 127.460938 -327.074219 127.492188 C -327.074219 127.492188 -326.882812 127.753906 -326.65625 127.789062 C -326.882812 127.753906 -326.65625 127.789062 -326.394531 127.597656 Z M -483.015625 102.949219 C -482.757812 102.757812 -482.722656 102.53125 -482.914062 102.269531 L -484.992188 99.175781 C -485.183594 98.914062 -485.410156 98.882812 -485.667969 99.074219 C -485.929688 99.265625 -485.964844 99.492188 -485.773438 99.753906 L -483.695312 102.847656 C -483.695312 102.847656 -483.503906 103.105469 -483.277344 103.140625 C -483.277344 103.140625 -483.050781 103.175781 -483.015625 102.949219 Z M -64.664062 165.617188 C -64.4375 165.652344 -64.175781 165.460938 -64.140625 165.234375 C -64.109375 165.007812 -64.300781 164.746094 -64.527344 164.710938 C -65.65625 164.539062 -67.015625 164.335938 -68.144531 164.164062 C -68.371094 164.128906 -68.632812 164.320312 -68.894531 164.515625 C -68.925781 164.742188 -68.734375 165 -68.542969 165.261719 C -67.636719 165.398438 -66.734375 165.535156 -65.601562 165.707031 C -65.34375 165.515625 -64.890625 165.582031 -64.664062 165.617188 Z M -58.941406 166.023438 C -57.773438 165.964844 -56.382812 165.945312 -55.21875 165.890625 C -54.992188 165.925781 -54.695312 165.507812 -54.664062 165.28125 C -54.628906 165.054688 -55.046875 164.757812 -55.273438 164.722656 C -56.4375 164.78125 -57.601562 164.835938 -58.996094 164.855469 C -59.21875 164.820312 -59.480469 165.011719 -59.550781 165.464844 C -59.585938 165.691406 -59.390625 165.953125 -58.941406 166.023438 C -59.164062 165.988281 -59.164062 165.988281 -58.941406 166.023438 Z M -73.085938 163.183594 C -73.054688 162.957031 -73.210938 162.46875 -73.4375 162.4375 C -74.535156 162.039062 -75.855469 161.605469 -76.953125 161.210938 C -77.179688 161.175781 -77.667969 161.332031 -77.699219 161.558594 C -77.734375 161.785156 -77.578125 162.273438 -77.351562 162.308594 C -76.253906 162.703125 -74.929688 163.136719 -73.835938 163.535156 C -73.609375 163.566406 -73.121094 163.410156 -73.085938 163.183594 Z M -81.828125 159.777344 C -81.792969 159.550781 -81.722656 159.097656 -82.175781 159.027344 C -83.273438 158.632812 -84.335938 158.007812 -85.625 157.347656 C -85.851562 157.316406 -86.304688 157.246094 -86.371094 157.699219 C -86.40625 157.925781 -86.476562 158.378906 -86.023438 158.445312 C -84.960938 159.070312 -83.636719 159.503906 -82.574219 160.125 C -82.574219 160.125 -82.574219 160.125 -82.347656 160.160156 C -82.121094 160.195312 -81.863281 160.003906 -81.828125 159.777344 Z M -49.742188 164.867188 C -48.542969 164.585938 -47.339844 164.304688 -46.109375 163.796875 C -45.847656 163.605469 -45.585938 163.414062 -45.777344 163.152344 C -45.96875 162.890625 -46.164062 162.632812 -46.421875 162.824219 C -47.621094 163.105469 -48.855469 163.613281 -50.054688 163.894531 C -50.316406 164.085938 -50.578125 164.277344 -50.386719 164.539062 C -50.386719 164.539062 -50.191406 164.800781 -49.742188 164.867188 Z M 139.015625 192.761719 C 140.058594 191.992188 140.90625 190.964844 141.6875 190.386719 C 141.949219 190.195312 142.019531 189.742188 141.792969 189.710938 C 141.601562 189.449219 141.148438 189.378906 141.113281 189.605469 C 140.070312 190.375 139.257812 191.175781 138.179688 192.171875 C 137.917969 192.363281 137.851562 192.816406 138.078125 192.851562 C 138.078125 192.851562 138.269531 193.113281 138.496094 193.144531 C 138.753906 192.953125 138.980469 192.988281 139.015625 192.761719 Z M -645.027344 72.621094 C -644.800781 72.65625 -644.539062 72.464844 -644.472656 72.011719 C -644.4375 71.785156 -644.59375 71.296875 -645.082031 71.457031 C -646.210938 71.285156 -647.570312 71.078125 -648.699219 70.90625 C -649.152344 70.839844 -649.1875 71.066406 -649.449219 71.257812 C -649.480469 71.484375 -649.289062 71.746094 -649.097656 72.003906 C -648.417969 72.109375 -647.742188 72.210938 -646.835938 72.347656 C -646.191406 72.675781 -645.511719 72.78125 -645.027344 72.621094 Z M -319.449219 121.46875 C -318.636719 120.667969 -317.59375 119.898438 -316.742188 118.871094 C -316.480469 118.679688 -316.414062 118.226562 -316.640625 118.191406 C -316.832031 117.929688 -317.285156 117.863281 -317.320312 118.089844 C -318.132812 118.890625 -319.175781 119.660156 -320.027344 120.6875 C -320.285156 120.878906 -320.355469 121.332031 -320.128906 121.367188 C -320.128906 121.367188 -319.9375 121.628906 -319.710938 121.664062 C -319.710938 121.664062 -319.484375 121.695312 -319.449219 121.46875 Z M -639.527344 72.992188 C -638.363281 72.9375 -636.972656 72.914062 -635.804688 72.859375 C -635.582031 72.894531 -635.285156 72.476562 -635.25 72.25 C -635.21875 72.023438 -635.636719 71.730469 -635.863281 71.695312 C -637.027344 71.75 -638.417969 71.769531 -639.582031 71.824219 C -639.808594 71.792969 -640.070312 71.984375 -640.140625 72.4375 C -639.945312 72.695312 -639.753906 72.957031 -639.527344 72.992188 Z M -653.484375 70.414062 C -653.449219 70.1875 -653.609375 69.703125 -653.835938 69.667969 C -654.929688 69.269531 -656.027344 68.871094 -657.351562 68.441406 C -657.578125 68.40625 -658.0625 68.5625 -658.097656 68.789062 C -658.132812 69.015625 -658.199219 69.46875 -657.75 69.539062 C -656.652344 69.933594 -655.328125 70.367188 -654.230469 70.765625 C -654.003906 70.800781 -653.746094 70.605469 -653.484375 70.414062 Z M -90.238281 155.722656 C -90.203125 155.496094 -90.136719 155.046875 -90.359375 155.011719 C -91.421875 154.386719 -92.484375 153.761719 -93.546875 153.136719 C -93.773438 153.105469 -94.226562 153.035156 -94.261719 153.261719 C -94.296875 153.488281 -94.363281 153.941406 -94.136719 153.976562 C -93.074219 154.597656 -92.011719 155.222656 -90.949219 155.847656 C -90.949219 155.847656 -90.722656 155.882812 -90.722656 155.882812 C -90.5 155.917969 -90.273438 155.949219 -90.238281 155.722656 Z M -488.355469 95.425781 C -488.09375 95.234375 -488.0625 95.007812 -488.253906 94.746094 C -489.019531 93.703125 -489.789062 92.660156 -490.589844 91.84375 C -490.78125 91.585938 -491.234375 91.515625 -491.269531 91.742188 C -491.53125 91.933594 -491.597656 92.386719 -491.371094 92.421875 C -490.605469 93.464844 -489.835938 94.507812 -489.035156 95.324219 C -489.035156 95.324219 -488.84375 95.582031 -488.617188 95.617188 C -488.390625 95.652344 -488.617188 95.617188 -488.355469 95.425781 Z M 63.492188 178.082031 C 63.664062 176.949219 63.867188 175.589844 64.039062 174.460938 C 64.074219 174.234375 63.882812 173.972656 63.65625 173.9375 C 63.429688 173.90625 63.167969 174.097656 63.136719 174.324219 C 62.964844 175.453125 62.757812 176.8125 62.585938 177.945312 C 62.550781 178.171875 62.746094 178.429688 62.96875 178.464844 C 63.195312 178.5 63.457031 178.308594 63.492188 178.082031 Z M -40.910156 161.574219 C -39.902344 161.03125 -38.636719 160.296875 -37.628906 159.757812 C -37.367188 159.5625 -37.332031 159.335938 -37.523438 159.078125 C -37.71875 158.816406 -37.945312 158.78125 -38.203125 158.972656 C -39.210938 159.515625 -40.253906 160.285156 -41.488281 160.792969 C -41.746094 160.984375 -41.78125 161.210938 -41.816406 161.4375 C -41.851562 161.664062 -41.625 161.699219 -41.398438 161.730469 C -41.136719 161.539062 -40.910156 161.574219 -40.910156 161.574219 Z M -662.191406 66.78125 C -662.15625 66.554688 -662.085938 66.101562 -662.539062 66.035156 C -663.601562 65.410156 -664.664062 64.785156 -665.726562 64.160156 C -665.917969 63.902344 -666.40625 64.058594 -666.441406 64.285156 C -666.699219 64.476562 -666.542969 64.964844 -666.316406 65 C -665.253906 65.621094 -664.191406 66.246094 -663.128906 66.871094 C -663.128906 66.871094 -662.902344 66.90625 -662.902344 66.90625 C -662.484375 67.199219 -662.222656 67.007812 -662.191406 66.78125 Z M -630.101562 71.871094 C -628.902344 71.589844 -627.703125 71.308594 -626.503906 71.027344 C -626.246094 70.835938 -625.984375 70.644531 -626.175781 70.382812 C -626.367188 70.121094 -626.558594 69.863281 -626.820312 70.054688 C -628.019531 70.335938 -629.21875 70.617188 -630.417969 70.898438 C -630.644531 70.863281 -630.941406 71.28125 -630.746094 71.542969 C -630.78125 71.769531 -630.554688 71.804688 -630.101562 71.871094 C -630.328125 71.839844 -630.101562 71.871094 -630.101562 71.871094 Z M -98.320312 151.027344 C -98.058594 150.835938 -98.214844 150.347656 -98.441406 150.3125 C -99.503906 149.691406 -100.566406 149.066406 -101.597656 148.214844 C -101.789062 147.953125 -102.273438 148.113281 -102.308594 148.339844 C -102.570312 148.53125 -102.410156 149.019531 -102.183594 149.050781 C -101.121094 149.675781 -100.058594 150.300781 -99.03125 151.148438 C -99.03125 151.148438 -98.804688 151.183594 -98.804688 151.183594 C -98.578125 151.21875 -98.355469 151.253906 -98.320312 151.027344 Z M 146.34375 187.15625 C 147.386719 186.390625 148.394531 185.847656 149.628906 185.339844 C 149.886719 185.148438 149.921875 184.921875 149.957031 184.695312 C 149.765625 184.433594 149.539062 184.398438 149.3125 184.363281 C 148.304688 184.90625 147.070312 185.414062 146.027344 186.183594 C 145.769531 186.375 145.734375 186.601562 145.925781 186.863281 C 145.890625 187.089844 146.117188 187.121094 146.34375 187.15625 C 146.117188 187.121094 146.117188 187.121094 146.34375 187.15625 Z M -670.273438 62.082031 C -670.011719 61.890625 -670.167969 61.40625 -670.394531 61.371094 C -671.457031 60.746094 -672.519531 60.121094 -673.546875 59.273438 C -673.738281 59.011719 -674.226562 59.167969 -674.261719 59.394531 C -674.519531 59.585938 -674.363281 60.074219 -674.136719 60.109375 C -673.074219 60.734375 -672.046875 61.582031 -670.984375 62.207031 C -670.984375 62.207031 -670.757812 62.242188 -670.757812 62.242188 C -670.53125 62.277344 -670.304688 62.308594 -670.273438 62.082031 Z M -621.152344 69.292969 C -619.917969 68.785156 -618.71875 68.503906 -617.710938 67.960938 C -617.449219 67.769531 -617.1875 67.578125 -617.382812 67.316406 C -617.574219 67.054688 -617.765625 66.792969 -618.023438 66.988281 C -619.257812 67.496094 -620.234375 67.808594 -621.464844 68.316406 C -621.726562 68.511719 -621.988281 68.703125 -621.796875 68.960938 C -621.828125 69.1875 -621.601562 69.222656 -621.378906 69.257812 C -621.378906 69.257812 -621.152344 69.292969 -621.152344 69.292969 Z M -493.957031 88.09375 C -493.695312 87.902344 -493.628906 87.449219 -493.851562 87.414062 C -494.621094 86.371094 -495.421875 85.554688 -496.191406 84.511719 C -496.382812 84.253906 -496.835938 84.183594 -496.871094 84.410156 C -497.128906 84.601562 -497.199219 85.054688 -496.972656 85.089844 C -496.203125 86.132812 -495.402344 86.949219 -494.632812 87.992188 C -494.632812 87.992188 -494.441406 88.25 -494.214844 88.285156 C -494.410156 88.023438 -494.183594 88.058594 -493.957031 88.09375 Z M -312.507812 115.34375 C -311.691406 114.542969 -310.648438 113.773438 -309.796875 112.746094 C -309.539062 112.550781 -309.46875 112.101562 -309.695312 112.066406 C -309.886719 111.804688 -310.339844 111.734375 -310.375 111.960938 C -311.191406 112.765625 -312.265625 113.761719 -313.082031 114.5625 C -313.34375 114.753906 -313.410156 115.207031 -313.183594 115.242188 C -313.183594 115.242188 -312.992188 115.503906 -312.765625 115.535156 C -312.765625 115.535156 -312.734375 115.308594 -312.507812 115.34375 Z M -106.105469 145.910156 C -105.84375 145.71875 -106.003906 145.230469 -106.230469 145.199219 C -107.292969 144.574219 -108.320312 143.722656 -109.382812 143.097656 C -109.574219 142.839844 -110.0625 142.996094 -110.09375 143.222656 C -110.355469 143.414062 -110.199219 143.902344 -109.972656 143.9375 C -108.910156 144.558594 -107.882812 145.410156 -106.820312 146.035156 C -106.820312 146.035156 -106.59375 146.070312 -106.59375 146.070312 C -106.402344 146.328125 -106.140625 146.136719 -106.105469 145.910156 Z M 217.589844 194.9375 C 218.949219 195.144531 220.078125 195.316406 221.210938 195.488281 C 221.4375 195.519531 221.695312 195.328125 221.765625 194.875 C 221.800781 194.648438 221.609375 194.390625 221.15625 194.320312 C 220.023438 194.148438 218.667969 193.945312 217.535156 193.773438 C 217.308594 193.738281 217.050781 193.929688 217.015625 194.15625 C 217.171875 194.644531 217.363281 194.902344 217.589844 194.9375 Z M 212.71875 193.503906 C 212.75 193.277344 212.558594 193.019531 212.367188 192.757812 C 211.238281 192.585938 209.914062 192.15625 208.78125 191.984375 C 208.558594 191.949219 208.070312 192.105469 208.035156 192.332031 C 208 192.558594 208.160156 193.046875 208.386719 193.082031 C 209.742188 193.285156 210.839844 193.683594 211.96875 193.855469 C 212.421875 193.925781 212.683594 193.730469 212.71875 193.503906 Z M -32.972656 156.523438 C -31.933594 155.757812 -31.117188 154.953125 -30.074219 154.183594 C -29.8125 153.992188 -29.746094 153.539062 -29.972656 153.507812 C -30.164062 153.246094 -30.617188 153.175781 -30.648438 153.402344 C -31.691406 154.171875 -32.507812 154.972656 -33.550781 155.742188 C -33.808594 155.933594 -33.878906 156.386719 -33.652344 156.421875 C -33.652344 156.421875 -33.460938 156.683594 -33.234375 156.714844 C -33.234375 156.714844 -32.972656 156.523438 -32.972656 156.523438 Z M 226.933594 195.890625 C 228.324219 195.871094 229.457031 196.039062 230.621094 195.984375 C 230.847656 196.019531 231.109375 195.828125 231.175781 195.375 C 231.210938 195.148438 230.792969 194.855469 230.566406 194.820312 C 229.402344 194.875 228.238281 194.929688 226.878906 194.722656 C 226.652344 194.691406 226.394531 194.882812 226.324219 195.335938 C 226.515625 195.59375 226.707031 195.855469 226.933594 195.890625 Z M 203.773438 191.457031 C 203.808594 191.230469 203.648438 190.742188 203.421875 190.707031 C 202.324219 190.3125 200.96875 190.105469 199.871094 189.707031 C 199.644531 189.671875 199.160156 189.832031 199.125 190.058594 C 199.089844 190.285156 199.25 190.769531 199.472656 190.804688 C 200.796875 191.238281 201.929688 191.410156 203.023438 191.804688 C 203.476562 191.875 203.738281 191.683594 203.773438 191.457031 Z M 154.5625 183.308594 C 155.761719 183.027344 156.960938 182.746094 158.160156 182.464844 C 158.386719 182.5 158.683594 182.078125 158.71875 181.851562 C 158.75 181.628906 158.332031 181.332031 158.105469 181.296875 C 156.90625 181.578125 155.707031 181.859375 154.507812 182.140625 C 154.246094 182.335938 153.988281 182.527344 154.179688 182.785156 C 154.144531 183.011719 154.371094 183.046875 154.597656 183.082031 C 154.335938 183.273438 154.5625 183.308594 154.5625 183.308594 Z M 194.667969 188.917969 C 194.703125 188.691406 194.546875 188.207031 194.320312 188.171875 C 193.222656 187.773438 191.898438 187.34375 190.769531 187.171875 C 190.542969 187.136719 190.054688 187.292969 190.023438 187.519531 C 189.988281 187.746094 190.144531 188.234375 190.371094 188.269531 C 191.46875 188.667969 192.792969 189.097656 193.921875 189.269531 C 194.375 189.339844 194.636719 189.144531 194.667969 188.917969 Z M -678.058594 56.96875 C -677.796875 56.777344 -677.957031 56.289062 -678.179688 56.253906 C -679.242188 55.628906 -680.273438 54.78125 -681.109375 54.191406 C -681.300781 53.929688 -681.785156 54.085938 -681.820312 54.3125 C -682.082031 54.507812 -681.925781 54.992188 -681.699219 55.027344 C -680.667969 55.878906 -679.605469 56.5 -678.542969 57.125 C -678.542969 57.125 -678.320312 57.160156 -678.320312 57.160156 C -678.320312 57.160156 -678.09375 57.195312 -678.058594 56.96875 Z M 236.222656 195.675781 C 237.386719 195.621094 238.8125 195.375 240.011719 195.09375 C 240.238281 195.125 240.535156 194.707031 240.34375 194.449219 C 240.375 194.222656 239.957031 193.925781 239.699219 194.117188 C 238.5 194.398438 237.332031 194.457031 236.132812 194.738281 C 235.90625 194.703125 235.613281 195.121094 235.578125 195.347656 C 235.804688 195.382812 235.996094 195.640625 236.222656 195.675781 Z M 65.125 168.835938 C 65.292969 167.703125 65.5 166.34375 65.671875 165.214844 C 65.707031 164.988281 65.515625 164.726562 65.289062 164.691406 C 65.0625 164.660156 64.800781 164.851562 64.765625 165.078125 C 64.59375 166.207031 64.390625 167.566406 64.21875 168.699219 C 64.183594 168.925781 64.375 169.183594 64.601562 169.21875 C 64.792969 169.480469 65.054688 169.289062 65.125 168.835938 Z M -612.515625 65.738281 C -611.28125 65.230469 -610.273438 64.6875 -609.039062 64.179688 C -608.777344 63.988281 -608.742188 63.761719 -608.710938 63.535156 C -608.902344 63.273438 -609.128906 63.242188 -609.355469 63.207031 C -610.585938 63.714844 -611.59375 64.257812 -612.828125 64.761719 C -613.089844 64.957031 -613.125 65.183594 -613.160156 65.410156 C -613.191406 65.636719 -612.964844 65.667969 -612.738281 65.703125 C -612.738281 65.703125 -612.515625 65.738281 -612.515625 65.738281 Z M 185.828125 186.191406 C 185.859375 185.964844 185.703125 185.476562 185.476562 185.445312 C 184.605469 185.078125 183.929688 184.976562 183.058594 184.613281 C 182.605469 184.546875 182.414062 184.285156 181.960938 184.214844 C 181.734375 184.183594 181.25 184.339844 181.214844 184.566406 C 181.179688 184.792969 181.335938 185.28125 181.5625 185.3125 C 182.015625 185.382812 182.207031 185.644531 182.660156 185.710938 C 183.53125 186.074219 184.210938 186.175781 185.078125 186.539062 C 185.53125 186.609375 185.792969 186.417969 185.828125 186.191406 Z M -113.859375 140.570312 C -113.597656 140.378906 -113.753906 139.890625 -113.980469 139.855469 C -115.042969 139.230469 -116.074219 138.382812 -117.136719 137.757812 C -117.328125 137.496094 -117.8125 137.65625 -117.847656 137.882812 C -118.109375 138.074219 -117.949219 138.558594 -117.722656 138.59375 C -116.660156 139.21875 -115.632812 140.070312 -114.570312 140.691406 C -114.570312 140.691406 -114.34375 140.726562 -114.34375 140.726562 C -114.152344 140.988281 -113.894531 140.796875 -113.859375 140.570312 Z M 163.535156 182.121094 C 164.699219 182.066406 165.832031 182.238281 167.222656 182.214844 C 167.449219 182.25 167.710938 182.058594 167.777344 181.605469 C 167.8125 181.378906 167.621094 181.117188 167.167969 181.050781 C 165.8125 180.84375 164.644531 180.898438 163.480469 180.953125 C 163.253906 180.917969 162.996094 181.113281 162.925781 181.566406 C 163.117188 181.824219 163.308594 182.085938 163.535156 182.121094 Z M 177.019531 183.234375 C 177.054688 183.007812 176.894531 182.523438 176.667969 182.488281 C 175.347656 182.054688 174.214844 181.886719 173.085938 181.714844 C 172.859375 181.679688 172.597656 181.871094 172.335938 182.0625 C 172.304688 182.289062 172.496094 182.550781 172.6875 182.8125 C 173.816406 182.984375 175.140625 183.414062 176.273438 183.585938 C 176.722656 183.65625 176.984375 183.460938 177.019531 183.234375 Z M -500.007812 80.695312 C -499.746094 80.5 -499.679688 80.050781 -499.90625 80.015625 C -500.671875 78.972656 -501.476562 78.15625 -502.46875 77.078125 C -502.660156 76.820312 -503.113281 76.75 -503.148438 76.976562 C -503.410156 77.167969 -503.476562 77.621094 -503.25 77.65625 C -502.449219 78.472656 -501.679688 79.515625 -500.878906 80.332031 C -500.878906 80.332031 -500.6875 80.589844 -500.460938 80.625 C -500.269531 80.886719 -500.042969 80.921875 -500.007812 80.695312 Z M 245.558594 193.617188 C 246.792969 193.109375 247.992188 192.828125 249 192.285156 C 249.261719 192.09375 249.292969 191.867188 249.328125 191.640625 C 249.136719 191.378906 248.910156 191.347656 248.683594 191.3125 C 247.675781 191.855469 246.441406 192.363281 245.242188 192.644531 C 244.984375 192.835938 244.722656 193.027344 244.914062 193.289062 C 244.878906 193.515625 245.105469 193.546875 245.332031 193.582031 C 245.332031 193.582031 245.332031 193.582031 245.558594 193.617188 Z M -685.550781 51.433594 C -685.289062 51.242188 -685.449219 50.753906 -685.671875 50.71875 C -686.703125 49.871094 -687.539062 49.28125 -688.566406 48.429688 C -688.757812 48.167969 -689.246094 48.328125 -689.277344 48.554688 C -689.539062 48.746094 -689.382812 49.234375 -689.15625 49.265625 C -688.128906 50.117188 -687.292969 50.707031 -686.261719 51.558594 C -686.261719 51.558594 -686.035156 51.589844 -686.035156 51.589844 C -685.8125 51.625 -685.550781 51.433594 -685.550781 51.433594 Z M -305.753906 108.957031 C -304.9375 108.15625 -303.863281 107.160156 -303.046875 106.359375 C -302.785156 106.164062 -302.71875 105.710938 -302.945312 105.679688 C -303.136719 105.417969 -303.589844 105.347656 -303.621094 105.574219 C -304.4375 106.378906 -305.480469 107.148438 -306.332031 108.175781 C -306.589844 108.367188 -306.660156 108.820312 -306.433594 108.855469 C -306.433594 108.855469 -306.242188 109.117188 -306.242188 109.117188 C -305.980469 108.921875 -305.980469 108.921875 -305.753906 108.957031 Z M -25.804688 150.433594 C -24.988281 149.628906 -23.910156 148.636719 -23.097656 147.832031 C -22.835938 147.640625 -22.765625 147.1875 -23.21875 147.121094 C -23.410156 146.859375 -23.863281 146.789062 -23.933594 147.242188 C -24.746094 148.046875 -25.597656 149.074219 -26.640625 149.84375 C -26.898438 150.035156 -26.96875 150.488281 -26.742188 150.523438 C -26.742188 150.523438 -26.550781 150.78125 -26.324219 150.816406 C -26.0625 150.625 -26.0625 150.625 -25.804688 150.433594 Z M -121.382812 135.261719 C -121.125 135.070312 -121.28125 134.582031 -121.507812 134.546875 C -122.570312 133.925781 -123.597656 133.074219 -124.402344 132.257812 C -124.59375 131.996094 -125.078125 132.15625 -125.113281 132.382812 C -125.375 132.574219 -125.214844 133.058594 -124.988281 133.09375 C -123.960938 133.945312 -122.898438 134.570312 -122.097656 135.386719 C -122.097656 135.386719 -121.871094 135.417969 -121.871094 135.417969 C -121.644531 135.453125 -121.417969 135.488281 -121.382812 135.261719 Z M -604.035156 61.695312 C -603.027344 61.152344 -601.792969 60.648438 -600.558594 60.140625 C -600.296875 59.945312 -600.265625 59.71875 -600.230469 59.492188 C -600.421875 59.234375 -600.648438 59.199219 -600.875 59.164062 C -602.109375 59.671875 -603.117188 60.214844 -604.351562 60.722656 C -604.609375 60.914062 -604.644531 61.140625 -604.679688 61.367188 C -604.714844 61.59375 -604.488281 61.628906 -604.261719 61.660156 C -604.296875 61.886719 -604.070312 61.921875 -604.035156 61.695312 Z M 253.847656 189.316406 C 254.886719 188.546875 255.929688 187.777344 256.746094 186.976562 C 257.007812 186.785156 257.074219 186.332031 256.847656 186.296875 C 256.65625 186.035156 256.203125 185.96875 256.171875 186.195312 C 255.355469 186.996094 254.3125 187.765625 253.269531 188.535156 C 253.011719 188.726562 252.976562 188.953125 253.167969 189.210938 C 253.167969 189.210938 253.359375 189.472656 253.585938 189.507812 C 253.621094 189.28125 253.621094 189.28125 253.847656 189.316406 Z M -506.128906 73.746094 C -505.867188 73.554688 -505.800781 73.101562 -506.253906 73.03125 C -507.054688 72.21875 -508.082031 71.367188 -508.851562 70.324219 C -509.042969 70.0625 -509.527344 70.222656 -509.5625 70.449219 C -509.824219 70.640625 -509.667969 71.125 -509.441406 71.160156 C -508.636719 71.976562 -507.609375 72.828125 -506.808594 73.644531 C -506.808594 73.644531 -506.582031 73.679688 -506.582031 73.679688 C -506.390625 73.9375 -506.390625 73.9375 -506.128906 73.746094 Z M -692.746094 45.480469 C -692.488281 45.289062 -692.644531 44.800781 -692.871094 44.769531 C -693.898438 43.917969 -694.699219 43.101562 -695.730469 42.25 C -695.921875 41.992188 -696.40625 42.148438 -696.441406 42.375 C -696.703125 42.566406 -696.542969 43.054688 -696.320312 43.089844 C -695.289062 43.9375 -694.488281 44.753906 -693.460938 45.605469 C -693.460938 45.605469 -693.234375 45.640625 -693.234375 45.640625 C -693.007812 45.671875 -692.78125 45.707031 -692.746094 45.480469 Z M 65.746094 160.132812 C 65.972656 160.164062 66.234375 159.972656 66.304688 159.519531 C 66.507812 158.164062 66.679688 157.03125 66.625 155.863281 C 66.660156 155.636719 66.46875 155.378906 66.015625 155.308594 C 65.789062 155.273438 65.527344 155.46875 65.460938 155.917969 C 65.289062 157.050781 65.308594 158.445312 65.136719 159.574219 C 65.328125 159.835938 65.519531 160.097656 65.746094 160.132812 Z M -128.875 129.726562 C -128.617188 129.535156 -128.773438 129.046875 -129 129.015625 L -131.894531 126.722656 C -132.085938 126.460938 -132.570312 126.621094 -132.605469 126.847656 C -132.867188 127.039062 -132.707031 127.527344 -132.480469 127.558594 L -129.589844 129.851562 C -129.589844 129.851562 -129.363281 129.886719 -129.363281 129.886719 C -129.136719 129.917969 -129.136719 129.917969 -128.875 129.726562 Z M -595.589844 57.882812 C -594.355469 57.375 -593.347656 56.832031 -592.113281 56.324219 C -591.851562 56.132812 -591.59375 55.941406 -591.785156 55.679688 C -591.976562 55.417969 -592.203125 55.382812 -592.65625 55.316406 C -593.890625 55.824219 -594.898438 56.367188 -596.128906 56.875 C -596.390625 57.066406 -596.425781 57.292969 -596.460938 57.519531 C -596.496094 57.746094 -596.269531 57.777344 -596.042969 57.8125 C -595.816406 57.847656 -595.589844 57.882812 -595.589844 57.882812 Z M -299.003906 102.570312 C -297.960938 101.800781 -297.144531 101 -296.101562 100.230469 C -295.84375 100.039062 -295.773438 99.585938 -296 99.550781 C -296.191406 99.292969 -296.644531 99.222656 -296.679688 99.449219 C -297.71875 100.21875 -298.535156 101.019531 -299.578125 101.789062 C -299.839844 101.980469 -299.90625 102.433594 -299.679688 102.46875 C -299.679688 102.46875 -299.488281 102.730469 -299.261719 102.761719 C -299.261719 102.761719 -299.035156 102.796875 -299.003906 102.570312 Z M -19.242188 143.785156 C -18.425781 142.984375 -17.578125 141.953125 -16.761719 141.152344 C -16.5 140.960938 -16.660156 140.472656 -16.886719 140.4375 C -17.078125 140.175781 -17.5625 140.335938 -17.597656 140.5625 C -18.414062 141.363281 -19.265625 142.394531 -20.078125 143.195312 C -20.339844 143.386719 -20.183594 143.875 -19.957031 143.910156 C -19.957031 143.910156 -19.730469 143.941406 -19.730469 143.941406 C -19.503906 143.976562 -19.503906 143.976562 -19.242188 143.785156 Z M -699.71875 39.5625 C -699.457031 39.371094 -699.617188 38.882812 -699.839844 38.851562 C -700.871094 38 -701.671875 37.183594 -702.699219 36.332031 C -702.890625 36.074219 -703.378906 36.230469 -703.414062 36.457031 C -703.671875 36.648438 -703.515625 37.136719 -703.289062 37.167969 C -702.261719 38.019531 -701.460938 38.835938 -700.429688 39.6875 C -700.429688 39.6875 -700.203125 39.722656 -700.203125 39.722656 C -699.980469 39.753906 -699.945312 39.527344 -699.71875 39.5625 Z M -513.066406 67.601562 C -512.804688 67.410156 -512.964844 66.921875 -513.1875 66.886719 C -514.21875 66.039062 -515.28125 65.414062 -516.082031 64.597656 C -516.273438 64.335938 -516.761719 64.496094 -516.792969 64.722656 C -516.828125 64.949219 -516.898438 65.402344 -516.671875 65.433594 C -515.609375 66.058594 -514.808594 66.875 -513.777344 67.726562 C -513.777344 67.726562 -513.554688 67.757812 -513.554688 67.757812 C -513.328125 67.792969 -513.066406 67.601562 -513.066406 67.601562 Z M -136.367188 124.191406 C -136.109375 124 -136.265625 123.515625 -136.492188 123.480469 L -139.382812 121.1875 C -139.578125 120.929688 -140.0625 121.085938 -140.097656 121.3125 C -140.359375 121.503906 -140.199219 121.992188 -139.972656 122.027344 L -137.082031 124.316406 C -137.082031 124.316406 -136.855469 124.351562 -136.855469 124.351562 C -136.628906 124.386719 -136.628906 124.386719 -136.367188 124.191406 Z M 260.824219 182.960938 C 261.640625 182.160156 262.488281 181.132812 263.113281 180.066406 C 263.375 179.875 263.214844 179.390625 262.992188 179.355469 C 262.796875 179.09375 262.3125 179.25 262.277344 179.476562 C 261.425781 180.507812 260.578125 181.535156 259.988281 182.371094 C 259.726562 182.566406 259.886719 183.050781 260.113281 183.085938 C 260.113281 183.085938 260.335938 183.121094 260.335938 183.121094 C 260.335938 183.121094 260.597656 182.929688 260.824219 182.960938 Z M -586.953125 54.328125 C -585.71875 53.820312 -584.519531 53.539062 -583.546875 53.222656 C -583.285156 53.03125 -583.023438 52.839844 -583.214844 52.578125 C -583.410156 52.316406 -583.601562 52.054688 -583.859375 52.25 C -585.058594 52.53125 -586.292969 53.039062 -587.492188 53.320312 C -587.753906 53.511719 -588.015625 53.703125 -587.824219 53.964844 C -587.855469 54.191406 -587.632812 54.222656 -587.40625 54.257812 C -587.210938 54.519531 -586.988281 54.554688 -586.953125 54.328125 Z M -520.558594 62.066406 C -520.523438 61.839844 -520.457031 61.386719 -520.679688 61.355469 L -521.324219 61.023438 C -522.160156 60.433594 -523.03125 60.070312 -524.09375 59.449219 C -524.320312 59.414062 -524.773438 59.34375 -524.808594 59.570312 C -524.84375 59.796875 -524.910156 60.25 -524.683594 60.285156 C -523.8125 60.648438 -522.976562 61.238281 -522.140625 61.828125 L -521.496094 62.15625 C -521.496094 62.15625 -521.269531 62.191406 -521.269531 62.191406 C -520.851562 62.484375 -520.820312 62.261719 -520.558594 62.066406 Z M -291.640625 96.738281 C -290.597656 95.972656 -289.554688 95.203125 -288.546875 94.660156 C -288.289062 94.46875 -288.253906 94.242188 -288.445312 93.980469 C -288.636719 93.722656 -288.863281 93.6875 -289.125 93.878906 C -290.167969 94.648438 -291.175781 95.1875 -292.214844 95.957031 C -292.476562 96.148438 -292.511719 96.375 -292.320312 96.636719 C -292.320312 96.636719 -292.125 96.898438 -291.902344 96.933594 C -291.902344 96.933594 -291.675781 96.964844 -291.640625 96.738281 Z M -143.859375 118.660156 C -143.601562 118.46875 -143.757812 117.980469 -143.984375 117.945312 C -145.046875 117.320312 -146.074219 116.472656 -146.910156 115.882812 C -147.101562 115.621094 -147.589844 115.777344 -147.625 116.003906 C -147.882812 116.199219 -147.726562 116.683594 -147.5 116.71875 C -146.4375 117.34375 -145.410156 118.191406 -144.574219 118.78125 C -144.574219 118.78125 -144.347656 118.816406 -144.347656 118.816406 C -144.382812 119.042969 -144.121094 118.851562 -143.859375 118.660156 Z M 66.472656 150.746094 C 66.699219 150.78125 66.960938 150.589844 67.03125 150.136719 C 67.007812 148.746094 66.953125 147.578125 66.898438 146.414062 C 66.933594 146.1875 66.515625 145.890625 66.289062 145.859375 C 66.0625 145.824219 65.769531 146.242188 65.734375 146.46875 C 65.789062 147.632812 65.84375 148.800781 65.863281 150.191406 C 66.054688 150.453125 66.25 150.714844 66.472656 150.746094 Z M -706.621094 33.191406 C -706.359375 33 -706.519531 32.511719 -706.742188 32.480469 L -709.601562 29.960938 C -709.792969 29.703125 -710.28125 29.859375 -710.316406 30.085938 C -710.574219 30.277344 -710.417969 30.765625 -710.191406 30.796875 L -707.332031 33.316406 C -707.332031 33.316406 -707.105469 33.351562 -707.105469 33.351562 C -707.105469 33.351562 -706.882812 33.382812 -706.621094 33.191406 Z M -578 51.746094 C -576.800781 51.464844 -575.601562 51.183594 -574.402344 50.902344 C -574.175781 50.9375 -573.878906 50.519531 -573.847656 50.292969 C -573.8125 50.066406 -574.230469 49.769531 -574.457031 49.738281 C -575.65625 50.019531 -576.855469 50.300781 -578.054688 50.582031 C -578.316406 50.773438 -578.574219 50.964844 -578.382812 51.226562 C -578.679688 51.644531 -578.453125 51.679688 -578 51.746094 C -578.226562 51.710938 -578.226562 51.710938 -578 51.746094 Z M -12.875 136.878906 C -12.058594 136.074219 -11.210938 135.046875 -10.394531 134.242188 C -10.132812 134.050781 -10.0625 133.597656 -10.515625 133.53125 C -10.707031 133.269531 -11.160156 133.199219 -11.230469 133.652344 C -12.046875 134.457031 -12.894531 135.484375 -13.710938 136.289062 C -13.972656 136.480469 -14.039062 136.933594 -13.585938 137 C -13.585938 137 -13.363281 137.035156 -13.363281 137.035156 C -13.136719 137.070312 -12.910156 137.105469 -12.875 136.878906 Z M -528.933594 57.789062 C -528.898438 57.5625 -528.832031 57.109375 -529.285156 57.042969 C -530.347656 56.417969 -531.667969 55.984375 -532.765625 55.585938 C -532.992188 55.554688 -533.445312 55.484375 -533.511719 55.9375 C -533.546875 56.164062 -533.617188 56.617188 -533.164062 56.683594 C -532.066406 57.082031 -531.003906 57.707031 -529.679688 58.140625 C -529.679688 58.140625 -529.679688 58.140625 -529.457031 58.171875 C -529.230469 58.207031 -528.96875 58.015625 -528.933594 57.789062 Z M -151.613281 113.316406 C -151.351562 113.125 -151.511719 112.636719 -151.738281 112.605469 C -152.796875 111.980469 -153.828125 111.128906 -154.890625 110.503906 C -155.082031 110.246094 -155.566406 110.402344 -155.601562 110.628906 C -155.863281 110.820312 -155.707031 111.308594 -155.480469 111.34375 C -154.417969 111.964844 -153.386719 112.816406 -152.324219 113.441406 C -152.324219 113.441406 -152.097656 113.476562 -152.097656 113.476562 C -151.875 113.507812 -151.648438 113.542969 -151.613281 113.316406 Z M -568.992188 50.332031 C -567.828125 50.277344 -566.402344 50.03125 -565.238281 49.976562 C -565.011719 50.007812 -564.714844 49.589844 -564.679688 49.363281 C -564.648438 49.136719 -565.066406 48.84375 -565.292969 48.808594 C -566.457031 48.863281 -567.847656 48.886719 -569.046875 49.167969 C -569.273438 49.132812 -569.570312 49.550781 -569.601562 49.777344 C -569.636719 50.003906 -569.445312 50.265625 -568.992188 50.332031 Z M -537.414062 54.1875 C -537.378906 53.960938 -537.535156 53.476562 -537.761719 53.441406 C -538.859375 53.042969 -540.183594 52.613281 -541.28125 52.214844 C -541.503906 52.179688 -541.992188 52.339844 -542.027344 52.5625 C -542.0625 52.789062 -541.902344 53.277344 -541.675781 53.3125 C -540.582031 53.710938 -539.257812 54.140625 -538.160156 54.539062 C -537.707031 54.609375 -537.449219 54.414062 -537.414062 54.1875 Z M 266.582031 175.5 L 268.679688 172.34375 C 268.941406 172.152344 268.78125 171.664062 268.558594 171.628906 C 268.363281 171.371094 267.878906 171.527344 267.84375 171.753906 L 265.746094 174.910156 C 265.484375 175.101562 265.644531 175.589844 265.871094 175.621094 C 265.871094 175.621094 266.097656 175.65625 266.097656 175.65625 C 266.097656 175.65625 266.320312 175.691406 266.582031 175.5 Z M -713.558594 27.046875 C -713.296875 26.855469 -713.453125 26.367188 -713.679688 26.335938 C -714.707031 25.484375 -715.511719 24.667969 -716.539062 23.816406 C -716.730469 23.558594 -717.21875 23.714844 -717.25 23.941406 C -717.511719 24.132812 -717.355469 24.621094 -717.128906 24.652344 C -716.101562 25.503906 -715.296875 26.320312 -714.269531 27.171875 C -714.269531 27.171875 -714.042969 27.207031 -714.042969 27.207031 C -714.042969 27.207031 -713.816406 27.238281 -713.558594 27.046875 Z M -559.671875 49.890625 C -558.503906 49.835938 -557.148438 50.042969 -556.015625 50.214844 C -555.789062 50.25 -555.53125 50.054688 -555.460938 49.601562 C -555.425781 49.375 -555.621094 49.117188 -556.070312 49.046875 C -557.203125 48.875 -558.59375 48.898438 -559.726562 48.726562 C -559.953125 48.691406 -560.210938 48.882812 -560.28125 49.335938 C -560.316406 49.5625 -560.121094 49.824219 -559.671875 49.890625 C -559.898438 49.859375 -559.671875 49.890625 -559.671875 49.890625 Z M -283.929688 91.65625 C -282.886719 90.886719 -281.878906 90.34375 -280.644531 89.835938 C -280.382812 89.644531 -280.351562 89.417969 -280.542969 89.160156 C -280.734375 88.898438 -280.960938 88.863281 -281.21875 89.054688 C -282.226562 89.597656 -283.269531 90.367188 -284.503906 90.875 C -284.765625 91.066406 -284.800781 91.292969 -284.605469 91.554688 C -284.640625 91.78125 -284.414062 91.8125 -284.1875 91.847656 C -284.15625 91.621094 -284.15625 91.621094 -283.929688 91.65625 Z M -546.253906 51.460938 C -546.222656 51.234375 -546.378906 50.746094 -546.605469 50.714844 C -547.738281 50.542969 -549.058594 50.109375 -550.191406 49.9375 C -550.417969 49.90625 -550.675781 50.097656 -550.710938 50.324219 C -550.746094 50.550781 -550.554688 50.808594 -550.363281 51.070312 C -549.230469 51.242188 -547.875 51.445312 -546.777344 51.84375 C -546.550781 51.878906 -546.289062 51.6875 -546.253906 51.460938 Z M -159.140625 108.007812 C -158.878906 107.816406 -159.035156 107.332031 -159.261719 107.296875 C -160.324219 106.671875 -161.351562 105.820312 -162.414062 105.199219 C -162.609375 104.9375 -163.09375 105.09375 -163.128906 105.320312 C -163.390625 105.511719 -163.230469 106 -163.003906 106.035156 C -161.941406 106.660156 -160.914062 107.507812 -159.851562 108.132812 C -159.851562 108.132812 -159.625 108.167969 -159.625 108.167969 C -159.398438 108.203125 -159.398438 108.203125 -159.140625 108.007812 Z M 65.777344 141.613281 C 66.035156 141.417969 66.296875 141.226562 66.105469 140.96875 C 65.824219 139.765625 65.316406 138.53125 65.035156 137.332031 C 64.84375 137.070312 64.652344 136.8125 64.390625 137.003906 C 64.128906 137.195312 63.871094 137.386719 64.0625 137.648438 C 64.570312 138.882812 64.882812 139.855469 65.164062 141.054688 C 65.132812 141.28125 65.324219 141.542969 65.777344 141.613281 C 65.550781 141.578125 65.550781 141.578125 65.777344 141.613281 Z M -6.347656 130.457031 C -5.535156 129.652344 -4.492188 128.886719 -3.640625 127.855469 C -3.378906 127.664062 -3.3125 127.210938 -3.539062 127.175781 C -3.730469 126.917969 -4.183594 126.847656 -4.21875 127.074219 C -5.257812 127.84375 -6.074219 128.644531 -6.925781 129.675781 C -7.183594 129.867188 -7.253906 130.320312 -7.027344 130.351562 C -7.027344 130.351562 -6.835938 130.613281 -6.609375 130.648438 C -6.609375 130.648438 -6.347656 130.457031 -6.347656 130.457031 Z M -720.71875 20.867188 C -720.460938 20.675781 -720.617188 20.191406 -720.84375 20.15625 C -721.871094 19.304688 -722.671875 18.488281 -723.703125 17.636719 C -723.894531 17.378906 -724.378906 17.535156 -724.414062 17.761719 C -724.675781 17.953125 -724.519531 18.441406 -724.292969 18.476562 C -723.261719 19.324219 -722.460938 20.140625 -721.433594 20.992188 C -721.433594 20.992188 -721.207031 21.027344 -721.207031 21.027344 C -720.980469 21.0625 -720.753906 21.09375 -720.71875 20.867188 Z M -275.832031 87.09375 C -274.824219 86.550781 -273.589844 86.042969 -272.582031 85.5 C -272.324219 85.308594 -272.289062 85.082031 -272.253906 84.855469 C -272.445312 84.597656 -272.671875 84.5625 -272.898438 84.527344 C -274.132812 85.035156 -275.140625 85.578125 -276.375 86.085938 C -276.632812 86.277344 -276.667969 86.503906 -276.703125 86.730469 C -276.738281 86.957031 -276.511719 86.992188 -276.285156 87.023438 C -276.058594 87.058594 -276.058594 87.058594 -275.832031 87.09375 Z M -166.925781 102.894531 C -166.664062 102.703125 -166.824219 102.214844 -167.050781 102.179688 C -168.113281 101.554688 -169.175781 100.933594 -170.238281 100.308594 C -170.429688 100.046875 -170.914062 100.207031 -170.949219 100.433594 C -171.210938 100.625 -171.050781 101.109375 -170.824219 101.144531 C -169.761719 101.769531 -168.703125 102.394531 -167.640625 103.015625 C -167.640625 103.015625 -167.414062 103.050781 -167.414062 103.050781 C -167.414062 103.050781 -167.1875 103.085938 -166.925781 102.894531 Z M 272.113281 168 C 272.964844 166.972656 273.78125 166.167969 274.40625 165.105469 C 274.664062 164.914062 274.507812 164.425781 274.28125 164.394531 C 274.089844 164.132812 273.601562 164.289062 273.566406 164.515625 C 272.753906 165.320312 271.902344 166.347656 271.050781 167.378906 C 270.792969 167.570312 270.949219 168.054688 271.175781 168.089844 C 271.175781 168.089844 271.402344 168.125 271.402344 168.125 C 271.628906 168.160156 271.855469 168.195312 272.113281 168 Z M -727.691406 14.949219 C -727.429688 14.757812 -727.589844 14.269531 -727.816406 14.238281 C -728.84375 13.386719 -729.679688 12.796875 -730.707031 11.945312 C -730.898438 11.6875 -731.386719 11.84375 -731.421875 12.070312 C -731.679688 12.261719 -731.523438 12.75 -731.296875 12.785156 C -730.269531 13.632812 -729.433594 14.222656 -728.402344 15.074219 C -728.402344 15.074219 -728.179688 15.109375 -728.179688 15.109375 C -728.179688 15.109375 -727.953125 15.140625 -727.691406 14.949219 Z M -174.972656 97.96875 C -174.9375 97.742188 -174.871094 97.292969 -175.097656 97.257812 C -176.160156 96.632812 -177.222656 96.007812 -178.285156 95.386719 C -178.511719 95.351562 -178.960938 95.28125 -178.996094 95.507812 C -179.03125 95.734375 -179.097656 96.1875 -178.875 96.222656 C -177.8125 96.84375 -176.75 97.46875 -175.6875 98.09375 C -175.6875 98.09375 -175.460938 98.128906 -175.460938 98.128906 C -175.234375 98.164062 -175.007812 98.195312 -174.972656 97.96875 Z M 0.820312 124.363281 C 1.863281 123.597656 2.90625 122.828125 3.914062 122.285156 C 4.171875 122.09375 4.207031 121.867188 4.015625 121.605469 C 3.824219 121.347656 3.597656 121.3125 3.335938 121.503906 C 2.296875 122.273438 1.289062 122.8125 0.246094 123.582031 C -0.015625 123.773438 -0.0820312 124.226562 0.144531 124.261719 C 0.144531 124.261719 0.335938 124.523438 0.5625 124.554688 C 0.5625 124.554688 0.5625 124.554688 0.820312 124.363281 Z M -267.386719 83.277344 C -266.152344 82.769531 -264.953125 82.488281 -263.945312 81.949219 C -263.6875 81.753906 -263.425781 81.5625 -263.617188 81.300781 C -263.808594 81.042969 -264 80.78125 -264.261719 80.972656 C -265.460938 81.253906 -266.695312 81.761719 -267.703125 82.304688 C -267.964844 82.496094 -268.222656 82.6875 -268.03125 82.949219 C -268.066406 83.175781 -267.839844 83.210938 -267.613281 83.246094 C -267.648438 83.46875 -267.613281 83.246094 -267.386719 83.277344 Z M 62.226562 132.96875 C 62.484375 132.777344 62.519531 132.550781 62.328125 132.289062 C 61.5625 131.25 60.792969 130.207031 60.023438 129.164062 C 59.832031 128.902344 59.382812 128.835938 59.347656 129.0625 C 59.085938 129.253906 59.015625 129.707031 59.242188 129.738281 C 60.046875 130.554688 60.8125 131.597656 61.355469 132.605469 C 61.320312 132.832031 61.546875 132.867188 61.773438 132.902344 C 61.964844 133.160156 62.226562 132.96875 62.226562 132.96875 Z M -183.054688 93.273438 C -183.019531 93.046875 -182.953125 92.59375 -183.179688 92.558594 C -184.242188 91.9375 -185.304688 91.3125 -186.398438 90.914062 C -186.625 90.878906 -187.078125 90.8125 -187.148438 91.265625 C -187.179688 91.488281 -187.25 91.941406 -186.796875 92.011719 C -185.734375 92.636719 -184.636719 93.03125 -183.574219 93.65625 C -183.574219 93.65625 -183.347656 93.691406 -183.347656 93.691406 C -183.347656 93.691406 -183.089844 93.5 -183.054688 93.273438 Z M -735.148438 9.191406 C -734.886719 8.996094 -735.046875 8.511719 -735.273438 8.476562 C -736.335938 7.851562 -737.363281 7.003906 -738.425781 6.378906 C -738.617188 6.117188 -739.105469 6.273438 -739.136719 6.5 C -739.398438 6.695312 -739.242188 7.179688 -739.015625 7.214844 C -737.953125 7.839844 -736.925781 8.6875 -736.089844 9.277344 C -736.089844 9.277344 -735.863281 9.3125 -735.863281 9.3125 C -735.445312 9.609375 -735.183594 9.417969 -735.148438 9.191406 Z M -258.628906 80.4375 C -257.425781 80.15625 -256.226562 79.875 -255.027344 79.59375 C -254.800781 79.628906 -254.507812 79.210938 -254.699219 78.949219 C -254.664062 78.722656 -255.082031 78.425781 -255.34375 78.621094 C -256.542969 78.902344 -257.742188 79.183594 -258.941406 79.464844 C -259.203125 79.65625 -259.464844 79.847656 -259.269531 80.109375 C -259.304688 80.335938 -259.113281 80.59375 -258.628906 80.4375 C -258.886719 80.628906 -258.628906 80.4375 -258.628906 80.4375 Z M 278.222656 161.285156 C 279.039062 160.484375 280.082031 159.714844 281.121094 158.945312 C 281.382812 158.753906 281.417969 158.527344 281.226562 158.265625 C 281.03125 158.007812 280.808594 157.972656 280.546875 158.164062 C 279.503906 158.933594 278.460938 159.699219 277.648438 160.503906 C 277.386719 160.695312 277.316406 161.148438 277.542969 161.183594 C 277.542969 161.183594 277.734375 161.441406 277.960938 161.476562 C 277.960938 161.476562 278.222656 161.285156 278.222656 161.285156 Z M -191.464844 89.21875 C -191.429688 88.996094 -191.363281 88.542969 -191.816406 88.472656 C -192.878906 87.847656 -193.972656 87.453125 -195.296875 87.019531 C -195.523438 86.984375 -195.976562 86.917969 -196.042969 87.371094 C -196.078125 87.59375 -196.148438 88.046875 -195.695312 88.117188 C -194.597656 88.515625 -193.535156 89.136719 -192.210938 89.570312 C -192.210938 89.570312 -192.210938 89.570312 -191.984375 89.605469 C -191.761719 89.640625 -191.5 89.445312 -191.464844 89.21875 Z M 8.5 119.507812 C 9.507812 118.964844 10.742188 118.457031 11.941406 118.175781 C 12.199219 117.984375 12.460938 117.792969 12.269531 117.53125 C 12.078125 117.269531 11.886719 117.011719 11.625 117.203125 C 10.390625 117.710938 9.382812 118.25 8.148438 118.757812 C 7.890625 118.953125 7.855469 119.179688 7.820312 119.402344 C 7.785156 119.628906 8.011719 119.664062 8.238281 119.699219 C 8.238281 119.699219 8.5 119.507812 8.5 119.507812 Z M 56.105469 126.023438 C 56.363281 125.832031 56.207031 125.34375 55.980469 125.308594 C 54.953125 124.460938 53.890625 123.835938 52.828125 123.210938 C 52.636719 122.949219 52.148438 123.109375 52.113281 123.335938 C 51.855469 123.527344 52.011719 124.011719 52.238281 124.046875 C 53.300781 124.671875 54.328125 125.523438 55.164062 126.113281 C 55.164062 126.113281 55.390625 126.144531 55.390625 126.144531 C 55.84375 126.214844 56.070312 126.25 56.105469 126.023438 Z M -742.9375 4.074219 C -742.675781 3.882812 -742.832031 3.394531 -743.058594 3.359375 C -744.121094 2.738281 -745.183594 2.113281 -746.246094 1.488281 C -746.4375 1.226562 -746.925781 1.386719 -746.960938 1.613281 C -747.21875 1.804688 -747.0625 2.292969 -746.835938 2.324219 C -745.773438 2.949219 -744.710938 3.574219 -743.648438 4.199219 C -743.648438 4.199219 -743.421875 4.230469 -743.421875 4.230469 C -743.195312 4.265625 -742.9375 4.074219 -742.9375 4.074219 Z M -249.585938 78.796875 C -248.386719 78.515625 -247.222656 78.460938 -245.828125 78.441406 C -245.601562 78.472656 -245.308594 78.054688 -245.273438 77.828125 C -245.238281 77.601562 -245.65625 77.308594 -245.882812 77.273438 C -247.050781 77.328125 -248.476562 77.574219 -249.640625 77.628906 C -249.867188 77.597656 -250.160156 78.015625 -250.195312 78.242188 C -250.230469 78.46875 -250.039062 78.726562 -249.585938 78.796875 Z M -199.910156 85.394531 C -199.875 85.167969 -200.035156 84.679688 -200.257812 84.648438 C -201.355469 84.25 -202.679688 83.816406 -203.777344 83.417969 C -204.003906 83.386719 -204.488281 83.542969 -204.523438 83.769531 C -204.558594 83.996094 -204.398438 84.484375 -204.171875 84.515625 C -203.078125 84.914062 -201.753906 85.347656 -200.65625 85.746094 C -200.65625 85.746094 -200.65625 85.746094 -200.429688 85.777344 C -200.203125 85.8125 -199.945312 85.621094 -199.910156 85.394531 Z M -208.683594 82.214844 C -208.648438 81.988281 -208.808594 81.5 -209.035156 81.464844 C -210.128906 81.066406 -211.453125 80.636719 -212.585938 80.464844 C -212.808594 80.429688 -213.296875 80.589844 -213.332031 80.816406 C -213.367188 81.042969 -213.207031 81.527344 -212.980469 81.5625 C -211.886719 81.960938 -210.527344 82.164062 -209.429688 82.5625 C -208.980469 82.632812 -208.71875 82.441406 -208.683594 82.214844 Z M -240.421875 77.871094 C -239.253906 77.8125 -237.863281 77.792969 -236.734375 77.964844 C -236.507812 78 -236.246094 77.808594 -236.179688 77.355469 C -236.144531 77.128906 -236.335938 76.867188 -236.789062 76.800781 C -237.953125 76.855469 -239.34375 76.875 -240.476562 76.703125 C -240.703125 76.667969 -240.960938 76.859375 -241.03125 77.3125 C -240.839844 77.574219 -240.648438 77.835938 -240.421875 77.871094 Z M 48.285156 121.132812 C 48.316406 120.90625 48.386719 120.453125 47.933594 120.386719 C 47.289062 120.058594 46.417969 119.691406 45.773438 119.363281 C 45.320312 119.296875 44.902344 119 44.679688 118.964844 C 44.453125 118.933594 43.964844 119.089844 43.929688 119.316406 C 43.894531 119.542969 44.054688 120.03125 44.28125 120.0625 C 44.734375 120.132812 45.152344 120.425781 45.378906 120.460938 C 46.246094 120.824219 46.890625 121.152344 47.535156 121.484375 C 47.535156 121.484375 47.535156 121.484375 47.761719 121.519531 C 48.023438 121.324219 48.25 121.359375 48.285156 121.132812 Z M 17.257812 116.667969 C 18.457031 116.382812 19.660156 116.101562 20.824219 116.046875 C 21.050781 116.082031 21.34375 115.664062 21.378906 115.4375 C 21.414062 115.210938 20.996094 114.917969 20.769531 114.882812 C 19.605469 114.9375 18.179688 115.183594 16.976562 115.464844 C 16.753906 115.429688 16.457031 115.851562 16.648438 116.109375 C 16.613281 116.335938 16.808594 116.597656 17.257812 116.667969 C 17.03125 116.632812 17.03125 116.632812 17.257812 116.667969 Z M -217.5625 79.710938 C -217.527344 79.484375 -217.683594 78.996094 -217.910156 78.964844 C -219.042969 78.792969 -220.363281 78.359375 -221.496094 78.1875 C -221.722656 78.15625 -221.980469 78.347656 -222.242188 78.539062 C -222.277344 78.765625 -222.085938 79.027344 -221.894531 79.285156 C -220.761719 79.457031 -219.40625 79.664062 -218.308594 80.0625 C -217.890625 80.355469 -217.628906 80.164062 -217.5625 79.710938 Z M -750.757812 -0.816406 C -750.722656 -1.042969 -750.652344 -1.496094 -750.878906 -1.527344 C -751.941406 -2.152344 -753.003906 -2.777344 -754.101562 -3.175781 C -754.328125 -3.207031 -754.78125 -3.277344 -754.847656 -2.824219 C -754.882812 -2.597656 -754.953125 -2.144531 -754.5 -2.078125 C -753.4375 -1.453125 -752.375 -0.828125 -751.277344 -0.429688 C -751.277344 -0.429688 -751.050781 -0.398438 -751.050781 -0.398438 C -751.277344 -0.429688 -751.015625 -0.625 -750.757812 -0.816406 Z M -230.976562 78.140625 C -229.84375 78.3125 -228.453125 78.292969 -227.320312 78.464844 C -227.09375 78.5 -226.835938 78.304688 -226.800781 78.078125 C -226.765625 77.855469 -226.957031 77.59375 -227.183594 77.558594 C -228.316406 77.386719 -229.671875 77.183594 -230.839844 77.238281 C -231.0625 77.203125 -231.324219 77.394531 -231.394531 77.847656 C -231.621094 77.8125 -231.425781 78.074219 -230.976562 78.140625 C -231.203125 78.109375 -231.203125 78.109375 -230.976562 78.140625 Z M 285.707031 156.167969 C 286.714844 155.625 287.949219 155.117188 288.957031 154.574219 C 289.21875 154.382812 289.476562 154.191406 289.285156 153.929688 C 289.09375 153.671875 288.902344 153.410156 288.640625 153.601562 C 287.40625 154.109375 286.402344 154.652344 285.167969 155.160156 C 284.90625 155.351562 284.871094 155.578125 284.835938 155.804688 C 284.804688 156.03125 285.03125 156.066406 285.253906 156.097656 C 285.480469 156.132812 285.707031 156.167969 285.707031 156.167969 Z M 39.542969 117.726562 C 39.578125 117.5 39.421875 117.011719 39.195312 116.976562 C 37.871094 116.546875 36.742188 116.375 35.644531 115.976562 C 35.417969 115.941406 34.929688 116.101562 34.894531 116.328125 C 34.863281 116.554688 35.019531 117.039062 35.246094 117.074219 C 36.378906 117.246094 37.699219 117.679688 38.796875 118.074219 C 39.25 118.144531 39.507812 117.953125 39.542969 117.726562 Z M 26.199219 115.703125 C 27.363281 115.648438 28.71875 115.855469 29.851562 116.027344 C 30.078125 116.058594 30.339844 115.867188 30.40625 115.414062 C 30.441406 115.1875 30.25 114.929688 29.796875 114.859375 C 28.4375 114.65625 27.273438 114.710938 26.144531 114.539062 C 25.917969 114.503906 25.65625 114.695312 25.585938 115.148438 C 25.78125 115.410156 25.972656 115.671875 26.199219 115.703125 Z M -759.132812 -5.09375 C -759.097656 -5.320312 -759.03125 -5.773438 -759.484375 -5.839844 C -760.542969 -6.464844 -761.640625 -6.863281 -762.964844 -7.296875 C -763.191406 -7.328125 -763.644531 -7.398438 -763.710938 -6.945312 C -763.746094 -6.71875 -763.816406 -6.265625 -763.363281 -6.199219 C -762.265625 -5.800781 -761.203125 -5.175781 -759.878906 -4.742188 C -759.878906 -4.742188 -759.878906 -4.742188 -759.652344 -4.710938 C -759.425781 -4.675781 -759.167969 -4.867188 -759.132812 -5.09375 Z M 294.3125 152.839844 C 295.511719 152.558594 296.710938 152.277344 297.910156 151.996094 C 298.136719 152.03125 298.429688 151.609375 298.464844 151.386719 C 298.5 151.160156 298.082031 150.863281 297.855469 150.828125 C 296.65625 151.109375 295.457031 151.390625 294.257812 151.671875 C 293.769531 151.832031 293.699219 152.285156 293.667969 152.511719 C 293.859375 152.769531 293.824219 152.996094 294.3125 152.839844 C 294.277344 153.066406 294.277344 153.066406 294.3125 152.839844 Z M -767.613281 -8.695312 C -767.578125 -8.921875 -767.734375 -9.40625 -767.960938 -9.441406 C -769.058594 -9.839844 -770.382812 -10.269531 -771.476562 -10.667969 C -771.703125 -10.703125 -772.191406 -10.542969 -772.226562 -10.320312 C -772.257812 -10.09375 -772.101562 -9.605469 -771.875 -9.570312 C -770.777344 -9.171875 -769.457031 -8.742188 -768.359375 -8.34375 C -768.359375 -8.34375 -768.359375 -8.34375 -768.132812 -8.308594 C -767.871094 -8.5 -767.644531 -8.46875 -767.613281 -8.695312 Z M -776.386719 -11.875 C -776.351562 -12.101562 -776.507812 -12.589844 -776.734375 -12.621094 C -777.832031 -13.019531 -779.15625 -13.453125 -780.285156 -13.625 C -780.511719 -13.65625 -781 -13.5 -781.035156 -13.273438 C -781.066406 -13.046875 -780.910156 -12.558594 -780.683594 -12.527344 C -779.328125 -12.320312 -778.230469 -11.921875 -777.132812 -11.523438 C -776.679688 -11.457031 -776.421875 -11.648438 -776.386719 -11.875 Z M 303.511719 151.6875 C 304.675781 151.628906 305.839844 151.574219 307.230469 151.554688 C 307.457031 151.589844 307.71875 151.398438 307.789062 150.945312 C 307.820312 150.71875 307.628906 150.457031 307.175781 150.390625 C 305.785156 150.410156 304.621094 150.464844 303.457031 150.519531 C 303.230469 150.484375 302.933594 150.902344 302.898438 151.128906 C 302.867188 151.355469 303.058594 151.617188 303.511719 151.6875 C 303.285156 151.652344 303.285156 151.652344 303.511719 151.6875 Z M -785.226562 -14.601562 C -785.195312 -14.828125 -785.351562 -15.316406 -785.578125 -15.351562 C -786.933594 -15.554688 -788.03125 -15.953125 -789.390625 -16.160156 C -789.613281 -16.195312 -789.875 -16 -789.910156 -15.777344 C -789.945312 -15.550781 -789.785156 -15.0625 -789.558594 -15.027344 C -788.429688 -14.855469 -787.105469 -14.425781 -786.007812 -14.027344 C -785.75 -14.21875 -785.261719 -14.378906 -785.226562 -14.601562 Z M 312.570312 151.4375 C 313.738281 151.382812 315.09375 151.589844 316.226562 151.757812 C 316.453125 151.792969 316.710938 151.601562 316.78125 151.148438 C 316.847656 150.695312 316.625 150.660156 316.171875 150.59375 C 314.8125 150.386719 313.648438 150.441406 312.515625 150.273438 C 312.289062 150.238281 312.03125 150.429688 311.960938 150.882812 C 312.121094 151.367188 312.3125 151.628906 312.570312 151.4375 C 312.539062 151.664062 312.539062 151.664062 312.570312 151.4375 Z M -794.398438 -16.6875 C -794.367188 -16.914062 -794.558594 -17.175781 -794.75 -17.433594 C -795.878906 -17.605469 -797.203125 -18.039062 -798.335938 -18.210938 C -798.558594 -18.242188 -798.820312 -18.050781 -799.082031 -17.859375 C -799.117188 -17.632812 -798.925781 -17.371094 -798.730469 -17.113281 C -797.601562 -16.941406 -796.242188 -16.734375 -795.148438 -16.335938 C -794.695312 -16.269531 -794.433594 -16.460938 -794.398438 -16.6875 Z M -804.738281 -18.714844 C -804.703125 -18.941406 -804.894531 -19.203125 -805.121094 -19.238281 C -805.800781 -19.339844 -806.929688 -19.511719 -806.929688 -19.511719 L -807.101562 -18.378906 C -807.101562 -18.378906 -805.96875 -18.207031 -805.292969 -18.105469 C -805.03125 -18.296875 -804.769531 -18.488281 -804.738281 -18.714844 Z M -804.738281 -18.714844 " fill-opacity="1" fill-rule="nonzero"/></g></g></g><g clip-path="url(#6785d0f798)"><g clip-path="url(#7f02c3b2bf)"><g clip-path="url(#be9afd1b2e)"><path fill="#363636" d="M 45.316406 92.078125 L 77.960938 114.757812 L 55.28125 147.402344 L 22.636719 124.722656 Z M 45.316406 92.078125 " fill-opacity="1" fill-rule="nonzero"/></g></g></g><g clip-path="url(#a4355289b4)"><g clip-path="url(#3ac4c7d86d)"><g clip-path="url(#f28a0b18b7)"><path fill="#363636" d="M 322.738281 122.949219 L 355.382812 145.628906 L 332.703125 178.269531 L 300.0625 155.59375 Z M 322.738281 122.949219 " fill-opacity="1" fill-rule="nonzero"/></g></g></g><g clip-path="url(#f52b4d76c7)"><g clip-path="url(#04c439a57a)"><g clip-path="url(#ddeed99b6b)"><path fill="#e6e6e6" d="M 208.363281 160.3125 L 248.960938 188.519531 L 220.753906 229.121094 L 180.15625 200.914062 Z M 208.363281 160.3125 " fill-opacity="1" fill-rule="nonzero"/></g></g></g><g clip-path="url(#ca7d405973)"><g clip-path="url(#e6485a4cac)"><g clip-path="url(#ae59d98cd4)"><path fill="#363636" d="M 210.1875 170.445312 L 238.832031 190.34375 L 218.933594 218.984375 L 190.289062 199.085938 Z M 210.1875 170.445312 " fill-opacity="1" fill-rule="nonzero"/></g></g></g><g clip-path="url(#50d9e63e45)"><g clip-path="url(#5dba1d4b2c)"><g clip-path="url(#9e8a1772eb)"><path fill="#05d47d" d="M 49.871094 26.351562 C 45.148438 26.4375 41.378906 30.355469 41.464844 35.085938 C 41.550781 39.8125 45.460938 43.589844 50.179688 43.503906 C 54.902344 43.417969 58.671875 39.5 58.585938 34.773438 C 58.5 30.042969 54.589844 26.265625 49.871094 26.351562 Z M 51.054688 91.566406 C 50.933594 91.570312 50.816406 91.515625 50.742188 91.421875 C 50.5625 91.207031 32.75 69.683594 27.027344 50.6875 C 26.265625 48.625 25.78125 46.464844 25.589844 44.257812 L 25.578125 44.195312 C 25.574219 44.164062 25.574219 44.136719 25.574219 44.109375 C 25.527344 43.515625 25.5 43.015625 25.492188 42.542969 C 25.246094 28.917969 36.105469 17.632812 49.707031 17.386719 C 63.304688 17.140625 74.570312 28.023438 74.820312 41.644531 C 74.828125 42.097656 74.820312 42.574219 74.796875 43.128906 C 74.8125 43.183594 74.820312 43.238281 74.816406 43.296875 C 74.804688 43.398438 74.792969 43.5 74.78125 43.601562 L 74.761719 43.769531 C 74.632812 45.679688 74.28125 47.585938 73.714844 49.421875 C 68.824219 68.777344 51.558594 91.1875 51.382812 91.410156 C 51.308594 91.507812 51.199219 91.5625 51.078125 91.566406 L 51.054688 91.566406 " fill-opacity="1" fill-rule="nonzero"/></g></g></g><g clip-path="url(#f75f4b9915)"><g clip-path="url(#f81afe524f)"><g clip-path="url(#7e373ca7fe)"><path fill="#e6e6e6" d="M 50.171875 43.105469 C 45.671875 43.1875 41.945312 39.585938 41.863281 35.078125 C 41.78125 30.566406 45.375 26.832031 49.875 26.75 C 54.378906 26.667969 58.105469 30.269531 58.1875 34.78125 C 58.269531 39.289062 54.675781 43.023438 50.171875 43.105469 Z M 49.699219 16.988281 C 43.003906 17.109375 36.757812 19.835938 32.113281 24.664062 C 27.464844 29.492188 24.972656 35.84375 25.09375 42.550781 C 25.101562 43.027344 25.128906 43.527344 25.179688 44.117188 C 25.175781 44.160156 25.179688 44.207031 25.183594 44.25 L 25.191406 44.300781 L 25.195312 44.304688 C 25.390625 46.539062 25.878906 48.726562 26.648438 50.816406 C 29.65625 60.789062 35.960938 71.367188 40.726562 78.484375 C 45.878906 86.191406 50.390625 91.625 50.433594 91.679688 C 50.589844 91.863281 50.820312 91.96875 51.0625 91.964844 L 51.085938 91.964844 C 51.324219 91.960938 51.550781 91.847656 51.699219 91.65625 C 51.742188 91.601562 56.117188 85.941406 61.03125 77.972656 C 65.574219 70.605469 71.527344 59.695312 74.097656 49.53125 C 74.671875 47.675781 75.027344 45.746094 75.15625 43.796875 L 75.175781 43.648438 C 75.1875 43.546875 75.199219 43.441406 75.210938 43.339844 C 75.21875 43.253906 75.214844 43.167969 75.195312 43.082031 C 75.21875 42.546875 75.226562 42.082031 75.214844 41.640625 C 75.09375 34.933594 72.375 28.675781 67.554688 24.019531 C 62.734375 19.363281 56.394531 16.867188 49.699219 16.988281 Z M 50.1875 43.902344 C 55.136719 43.8125 59.074219 39.722656 58.984375 34.765625 C 58.894531 29.808594 54.808594 25.863281 49.863281 25.953125 C 44.914062 26.042969 40.976562 30.132812 41.066406 35.089844 C 41.15625 40.046875 45.242188 43.992188 50.1875 43.902344 M 49.714844 17.785156 C 63.117188 17.539062 74.175781 28.226562 74.421875 41.652344 C 74.429688 42.195312 74.417969 42.726562 74.390625 43.261719 L 74.417969 43.257812 C 74.402344 43.414062 74.382812 43.570312 74.367188 43.722656 C 74.238281 45.65625 73.886719 47.527344 73.332031 49.3125 C 68.410156 68.816406 51.070312 91.167969 51.070312 91.167969 L 51.046875 91.167969 C 51.046875 91.167969 33.164062 69.699219 27.40625 50.5625 C 26.660156 48.558594 26.175781 46.429688 25.984375 44.210938 C 25.980469 44.1875 25.976562 44.160156 25.972656 44.136719 L 25.976562 44.136719 C 25.933594 43.605469 25.898438 43.074219 25.890625 42.535156 C 25.644531 29.109375 36.3125 18.027344 49.714844 17.785156 " fill-opacity="1" fill-rule="nonzero"/></g></g></g><g fill="#363636" fill-opacity="1"><g transform="translate(93.776593, 294.108789)"><g><path d="M 2.296875 0 L 17.792969 0 C 24.554688 0 28.695312 -2.828125 28.695312 -7.828125 C 28.695312 -11.4375 26.402344 -13.980469 23.285156 -14.800781 L 23.285156 -15.167969 C 25.910156 -15.988281 27.875 -18.203125 27.875 -21.359375 C 27.875 -26.15625 23.898438 -29.269531 17.136719 -29.269531 L 2.296875 -29.269531 Z M 10.207031 -17.339844 L 10.207031 -23.652344 L 15.617188 -23.652344 C 17.996094 -23.652344 19.675781 -22.382812 19.675781 -20.496094 C 19.675781 -18.613281 17.996094 -17.339844 15.617188 -17.339844 Z M 10.207031 -5.617188 L 10.207031 -12.585938 L 16.070312 -12.585938 C 18.613281 -12.585938 20.496094 -11.109375 20.496094 -9.101562 C 20.496094 -7.09375 18.613281 -5.617188 16.070312 -5.617188 Z M 10.207031 -5.617188 "/></g></g></g><g fill="#363636" fill-opacity="1"><g transform="translate(123.618914, 294.108789)"><g><path d="M 0.328125 0 L 8.566406 0 L 10.125 -4.878906 L 20.949219 -4.878906 L 22.507812 0 L 30.746094 0 L 21.398438 -29.269531 L 9.675781 -29.269531 Z M 11.644531 -10.496094 L 15.332031 -22.546875 L 15.699219 -22.546875 L 19.429688 -10.496094 Z M 11.644531 -10.496094 "/></g></g></g><g fill="#363636" fill-opacity="1"><g transform="translate(154.690995, 294.108789)"><g><path d="M 2.296875 0 L 14.0625 0 C 23.941406 0 30.5 -5.738281 30.5 -14.636719 C 30.5 -23.53125 23.898438 -29.269531 14.0625 -29.269531 L 2.296875 -29.269531 Z M 9.960938 -5.902344 L 9.960938 -23.367188 L 14.0625 -23.367188 C 19.144531 -23.367188 22.589844 -20.003906 22.589844 -14.636719 C 22.589844 -9.265625 19.144531 -5.902344 14.0625 -5.902344 Z M 9.960938 -5.902344 "/></g></g></g><g fill="#363636" fill-opacity="1"><g transform="translate(186.500944, 294.108789)"><g><path d="M 2.296875 0 L 10.25 0 L 10.25 -10.085938 L 12.996094 -10.085938 L 20.578125 0 L 29.3125 0 L 20.496094 -10.660156 L 21.113281 -10.742188 C 25.539062 -11.4375 28.65625 -14.757812 28.65625 -19.511719 C 28.65625 -25.375 24.023438 -29.269531 16.890625 -29.269531 L 2.296875 -29.269531 Z M 10.25 -15.128906 L 10.25 -23.652344 L 15.375 -23.652344 C 18.488281 -23.652344 20.742188 -22.097656 20.742188 -19.390625 C 20.742188 -16.726562 18.488281 -15.128906 15.375 -15.128906 Z M 10.25 -15.128906 "/></g></g></g><g fill="#363636" fill-opacity="1"><g transform="translate(216.589222, 294.108789)"><g/></g></g><g fill="#363636" fill-opacity="1"><g transform="translate(226.55033, 294.108789)"><g><path d="M 2.335938 0 L 10.207031 0 L 10.207031 -8.609375 L 15.496094 -8.609375 C 23.324219 -8.609375 27.917969 -12.789062 27.917969 -18.941406 C 27.917969 -25.128906 23.367188 -29.269531 15.617188 -29.269531 L 2.335938 -29.269531 Z M 10.207031 -14.226562 L 10.207031 -23.652344 L 14.59375 -23.652344 C 17.996094 -23.652344 19.964844 -21.726562 19.964844 -18.941406 C 19.964844 -16.152344 17.996094 -14.226562 14.59375 -14.226562 Z M 10.207031 -14.226562 "/></g></g></g><g fill="#363636" fill-opacity="1"><g transform="translate(255.367845, 294.108789)"><g><path d="M 2.296875 0 L 10.207031 0 L 10.207031 -12.011719 L 21.070312 -12.011719 L 21.070312 0 L 29.023438 0 L 29.023438 -29.269531 L 21.070312 -29.269531 L 21.070312 -18.203125 L 10.207031 -18.203125 L 10.207031 -29.269531 L 2.296875 -29.269531 Z M 2.296875 0 "/></g></g></g></svg>