<svg xmlns="http://www.w3.org/2000/svg" xmlns:xlink="http://www.w3.org/1999/xlink" width="500" zoomAndPan="magnify" viewBox="0 0 375 374.999991" height="500" preserveAspectRatio="xMidYMid meet" version="1.0"><defs><g/><clipPath id="29a59f3008"><path d="M 0 25.023438 L 183 25.023438 L 183 208 L 0 208 Z M 0 25.023438 " clip-rule="nonzero"/></clipPath><clipPath id="3aea9b04b1"><path d="M 91 116 L 273.75 116 L 273.75 298.773438 L 91 298.773438 Z M 91 116 " clip-rule="nonzero"/></clipPath><clipPath id="48f1c65be7"><path d="M 301 280 L 345 280 L 345 298.980469 L 301 298.980469 Z M 301 280 " clip-rule="nonzero"/></clipPath><clipPath id="8c023c3013"><path d="M 273.867188 133.230469 L 371.367188 133.230469 L 371.367188 288 L 273.867188 288 Z M 273.867188 133.230469 " clip-rule="nonzero"/></clipPath></defs><g clip-path="url(#29a59f3008)"><path fill="#2dd489" d="M 87.699219 207.519531 L 49.15625 207.519531 C 22.011719 207.519531 0.0078125 185.515625 0.0078125 158.371094 C 0.0078125 131.226562 22.011719 109.21875 49.15625 109.21875 L 84.199219 109.21875 L 84.199219 74.179688 C 84.199219 47.035156 106.203125 25.03125 133.347656 25.03125 C 160.492188 25.03125 182.496094 47.035156 182.496094 74.179688 L 182.496094 112.722656 C 182.496094 113.914062 182.476562 115.101562 182.429688 116.277344 L 181.992188 116.277344 C 131.878906 116.277344 91.253906 156.902344 91.253906 207.015625 L 91.253906 207.453125 C 90.074219 207.5 88.886719 207.519531 87.699219 207.519531 " fill-opacity="1" fill-rule="nonzero"/></g><g clip-path="url(#3aea9b04b1)"><path fill="#41c1ba" d="M 140.402344 298.765625 C 113.257812 298.765625 91.253906 276.761719 91.253906 249.617188 L 91.253906 207.453125 C 140.785156 205.632812 180.609375 165.8125 182.429688 116.277344 L 224.59375 116.277344 C 251.738281 116.277344 273.742188 138.28125 273.742188 165.425781 C 273.742188 192.570312 251.738281 214.574219 224.59375 214.574219 L 189.550781 214.574219 L 189.550781 249.617188 C 189.550781 276.761719 167.546875 298.765625 140.402344 298.765625 " fill-opacity="1" fill-rule="nonzero"/></g><path fill="#365b6d" d="M 91.253906 207.453125 L 91.253906 207.015625 C 91.253906 156.902344 131.878906 116.277344 181.992188 116.277344 L 182.429688 116.277344 C 180.609375 165.8125 140.785156 205.632812 91.253906 207.453125 " fill-opacity="1" fill-rule="nonzero"/><g clip-path="url(#48f1c65be7)"><path fill="#f9a72b" d="M 344.660156 289.492188 C 344.660156 294.625 334.902344 298.789062 322.863281 298.789062 C 310.828125 298.789062 301.070312 294.625 301.070312 289.492188 C 301.070312 284.359375 310.828125 280.191406 322.863281 280.191406 C 334.902344 280.191406 344.660156 284.359375 344.660156 289.492188 " fill-opacity="1" fill-rule="nonzero"/></g><path fill="#fcd24f" d="M 344.214844 287.242188 C 344.214844 292.375 334.558594 296.539062 322.640625 296.539062 C 310.726562 296.539062 301.070312 292.375 301.070312 287.242188 C 301.070312 282.105469 310.726562 277.941406 322.640625 277.941406 C 334.558594 277.941406 344.214844 282.105469 344.214844 287.242188 " fill-opacity="1" fill-rule="nonzero"/><g clip-path="url(#8c023c3013)"><path fill="#ff3131" d="M 323.472656 133.421875 C 323.1875 133.421875 322.902344 133.441406 322.617188 133.445312 C 322.332031 133.441406 322.046875 133.421875 321.761719 133.421875 C 295.296875 133.421875 273.84375 155.761719 273.84375 183.3125 C 273.84375 188.015625 275.671875 198.886719 278.414062 203.398438 L 322.617188 287.242188 L 366.820312 203.398438 C 369.5625 198.886719 371.386719 188.015625 371.386719 183.3125 C 371.386719 155.761719 349.9375 133.421875 323.472656 133.421875 " fill-opacity="1" fill-rule="nonzero"/></g><path fill="#ffffff" d="M 349.082031 177.753906 C 349.082031 192.351562 337.230469 204.183594 322.617188 204.183594 C 308.003906 204.183594 296.152344 192.351562 296.152344 177.753906 C 296.152344 163.15625 308.003906 151.324219 322.617188 151.324219 C 337.230469 151.324219 349.082031 163.15625 349.082031 177.753906 " fill-opacity="1" fill-rule="nonzero"/><g fill="#ffffff" fill-opacity="1"><g transform="translate(0.0000045, 349.278464)"><g><path d="M 4.59375 -36.5 L 15.953125 -36.5 C 20.804688 -36.5 24.484375 -35.816406 26.984375 -34.453125 C 29.484375 -33.085938 30.734375 -30.691406 30.734375 -27.265625 C 30.734375 -25.878906 30.507812 -24.628906 30.0625 -23.515625 C 29.625 -22.398438 28.988281 -21.484375 28.15625 -20.765625 C 27.320312 -20.054688 26.304688 -19.59375 25.109375 -19.375 L 25.109375 -19.125 C 26.328125 -18.875 27.425781 -18.441406 28.40625 -17.828125 C 29.382812 -17.222656 30.171875 -16.34375 30.765625 -15.1875 C 31.359375 -14.03125 31.65625 -12.492188 31.65625 -10.578125 C 31.65625 -8.367188 31.113281 -6.472656 30.03125 -4.890625 C 28.945312 -3.304688 27.398438 -2.09375 25.390625 -1.25 C 23.390625 -0.414062 21.007812 0 18.25 0 L 4.59375 0 Z M 12.328125 -22.046875 L 16.828125 -22.046875 C 19.078125 -22.046875 20.632812 -22.398438 21.5 -23.109375 C 22.363281 -23.816406 22.796875 -24.859375 22.796875 -26.234375 C 22.796875 -27.628906 22.28125 -28.628906 21.25 -29.234375 C 20.226562 -29.847656 18.613281 -30.15625 16.40625 -30.15625 L 12.328125 -30.15625 Z M 12.328125 -15.90625 L 12.328125 -6.390625 L 17.375 -6.390625 C 19.707031 -6.390625 21.328125 -6.835938 22.234375 -7.734375 C 23.148438 -8.640625 23.609375 -9.847656 23.609375 -11.359375 C 23.609375 -12.253906 23.410156 -13.039062 23.015625 -13.71875 C 22.617188 -14.40625 21.945312 -14.941406 21 -15.328125 C 20.0625 -15.710938 18.769531 -15.90625 17.125 -15.90625 Z M 12.328125 -15.90625 "/></g></g></g><g fill="#ffffff" fill-opacity="1"><g transform="translate(31.276843, 349.278464)"><g><path d="M 2.921875 -3.5625 C 2.921875 -5.132812 3.347656 -6.234375 4.203125 -6.859375 C 5.054688 -7.492188 6.09375 -7.8125 7.3125 -7.8125 C 8.5 -7.8125 9.519531 -7.492188 10.375 -6.859375 C 11.226562 -6.234375 11.65625 -5.132812 11.65625 -3.5625 C 11.65625 -2.070312 11.226562 -0.992188 10.375 -0.328125 C 9.519531 0.335938 8.5 0.671875 7.3125 0.671875 C 6.09375 0.671875 5.054688 0.335938 4.203125 -0.328125 C 3.347656 -0.992188 2.921875 -2.070312 2.921875 -3.5625 Z M 2.921875 -3.5625 "/></g></g></g><g fill="#ffffff" fill-opacity="1"><g transform="translate(42.785708, 349.278464)"><g><path d="M 26.9375 0 L 24.296875 -8.6875 L 10.984375 -8.6875 L 8.34375 0 L 0 0 L 12.875 -36.640625 L 22.34375 -36.640625 L 35.265625 0 Z M 22.4375 -15.171875 L 19.796875 -23.671875 C 19.628906 -24.234375 19.40625 -24.957031 19.125 -25.84375 C 18.851562 -26.738281 18.582031 -27.644531 18.3125 -28.5625 C 18.039062 -29.488281 17.820312 -30.296875 17.65625 -30.984375 C 17.488281 -30.296875 17.257812 -29.445312 16.96875 -28.4375 C 16.675781 -27.4375 16.394531 -26.484375 16.125 -25.578125 C 15.863281 -24.679688 15.671875 -24.046875 15.546875 -23.671875 L 12.9375 -15.171875 Z M 22.4375 -15.171875 "/></g></g></g><g fill="#ffffff" fill-opacity="1"><g transform="translate(74.986049, 349.278464)"><g><path d="M 2.921875 -3.5625 C 2.921875 -5.132812 3.347656 -6.234375 4.203125 -6.859375 C 5.054688 -7.492188 6.09375 -7.8125 7.3125 -7.8125 C 8.5 -7.8125 9.519531 -7.492188 10.375 -6.859375 C 11.226562 -6.234375 11.65625 -5.132812 11.65625 -3.5625 C 11.65625 -2.070312 11.226562 -0.992188 10.375 -0.328125 C 9.519531 0.335938 8.5 0.671875 7.3125 0.671875 C 6.09375 0.671875 5.054688 0.335938 4.203125 -0.328125 C 3.347656 -0.992188 2.921875 -2.070312 2.921875 -3.5625 Z M 2.921875 -3.5625 "/></g></g></g><g fill="#ffffff" fill-opacity="1"><g transform="translate(86.494914, 349.278464)"><g><path d="M 34.5 0 L 26.78125 0 L 26.78125 -15.75 L 12.328125 -15.75 L 12.328125 0 L 4.59375 0 L 4.59375 -36.5 L 12.328125 -36.5 L 12.328125 -22.1875 L 26.78125 -22.1875 L 26.78125 -36.5 L 34.5 -36.5 Z M 34.5 0 "/></g></g></g><g fill="#ffffff" fill-opacity="1"><g transform="translate(122.539029, 349.278464)"><g/></g></g><g fill="#ffffff" fill-opacity="1"><g transform="translate(132.749996, 349.278464)"><g><path d="M 19.515625 -28.4375 C 22.660156 -28.4375 25.203125 -27.210938 27.140625 -24.765625 C 29.085938 -22.316406 30.0625 -18.726562 30.0625 -14 C 30.0625 -10.84375 29.601562 -8.1875 28.6875 -6.03125 C 27.769531 -3.875 26.503906 -2.242188 24.890625 -1.140625 C 23.273438 -0.046875 21.421875 0.5 19.328125 0.5 C 17.972656 0.5 16.8125 0.328125 15.84375 -0.015625 C 14.882812 -0.359375 14.0625 -0.796875 13.375 -1.328125 C 12.695312 -1.867188 12.109375 -2.453125 11.609375 -3.078125 L 11.203125 -3.078125 C 11.335938 -2.410156 11.4375 -1.722656 11.5 -1.015625 C 11.570312 -0.316406 11.609375 0.363281 11.609375 1.03125 L 11.609375 12.28125 L 4 12.28125 L 4 -27.90625 L 10.1875 -27.90625 L 11.265625 -24.296875 L 11.609375 -24.296875 C 12.109375 -25.035156 12.710938 -25.722656 13.421875 -26.359375 C 14.140625 -26.992188 15.003906 -27.5 16.015625 -27.875 C 17.023438 -28.25 18.191406 -28.4375 19.515625 -28.4375 Z M 17.078125 -22.34375 C 15.742188 -22.34375 14.6875 -22.066406 13.90625 -21.515625 C 13.125 -20.960938 12.550781 -20.140625 12.1875 -19.046875 C 11.832031 -17.953125 11.640625 -16.5625 11.609375 -14.875 L 11.609375 -14.046875 C 11.609375 -12.253906 11.773438 -10.734375 12.109375 -9.484375 C 12.453125 -8.234375 13.023438 -7.285156 13.828125 -6.640625 C 14.640625 -5.992188 15.753906 -5.671875 17.171875 -5.671875 C 18.335938 -5.671875 19.296875 -5.992188 20.046875 -6.640625 C 20.796875 -7.285156 21.359375 -8.238281 21.734375 -9.5 C 22.109375 -10.757812 22.296875 -12.296875 22.296875 -14.109375 C 22.296875 -16.835938 21.867188 -18.890625 21.015625 -20.265625 C 20.171875 -21.648438 18.859375 -22.34375 17.078125 -22.34375 Z M 17.078125 -22.34375 "/></g></g></g><g fill="#ffffff" fill-opacity="1"><g transform="translate(162.030069, 349.278464)"><g><path d="M 11.609375 -38.84375 L 11.609375 -30.921875 C 11.609375 -29.546875 11.5625 -28.234375 11.46875 -26.984375 C 11.375 -25.734375 11.304688 -24.851562 11.265625 -24.34375 L 11.65625 -24.34375 C 12.257812 -25.300781 12.972656 -26.078125 13.796875 -26.671875 C 14.617188 -27.273438 15.53125 -27.71875 16.53125 -28 C 17.53125 -28.289062 18.601562 -28.4375 19.75 -28.4375 C 21.757812 -28.4375 23.515625 -28.082031 25.015625 -27.375 C 26.515625 -26.664062 27.675781 -25.554688 28.5 -24.046875 C 29.332031 -22.546875 29.75 -20.597656 29.75 -18.203125 L 29.75 0 L 22.140625 0 L 22.140625 -16.296875 C 22.140625 -18.296875 21.773438 -19.800781 21.046875 -20.8125 C 20.316406 -21.832031 19.1875 -22.34375 17.65625 -22.34375 C 16.125 -22.34375 14.914062 -21.988281 14.03125 -21.28125 C 13.144531 -20.570312 12.519531 -19.53125 12.15625 -18.15625 C 11.789062 -16.78125 11.609375 -15.101562 11.609375 -13.125 L 11.609375 0 L 4 0 L 4 -38.84375 Z M 11.609375 -38.84375 "/></g></g></g><g fill="#ffffff" fill-opacity="1"><g transform="translate(192.558121, 349.278464)"><g><path d="M 15.421875 -28.484375 C 19.171875 -28.484375 22.039062 -27.664062 24.03125 -26.03125 C 26.03125 -24.40625 27.03125 -21.925781 27.03125 -18.59375 L 27.03125 0 L 21.71875 0 L 20.25 -3.796875 L 20.046875 -3.796875 C 19.242188 -2.796875 18.425781 -1.976562 17.59375 -1.34375 C 16.757812 -0.71875 15.800781 -0.253906 14.71875 0.046875 C 13.644531 0.347656 12.332031 0.5 10.78125 0.5 C 9.132812 0.5 7.65625 0.1875 6.34375 -0.4375 C 5.039062 -1.070312 4.015625 -2.039062 3.265625 -3.34375 C 2.515625 -4.65625 2.140625 -6.320312 2.140625 -8.34375 C 2.140625 -11.300781 3.179688 -13.484375 5.265625 -14.890625 C 7.347656 -16.296875 10.46875 -17.070312 14.625 -17.21875 L 19.46875 -17.375 L 19.46875 -18.59375 C 19.46875 -20.0625 19.082031 -21.132812 18.3125 -21.8125 C 17.550781 -22.5 16.488281 -22.84375 15.125 -22.84375 C 13.78125 -22.84375 12.457031 -22.648438 11.15625 -22.265625 C 9.863281 -21.878906 8.566406 -21.394531 7.265625 -20.8125 L 4.75 -25.96875 C 6.226562 -26.75 7.882812 -27.363281 9.71875 -27.8125 C 11.5625 -28.257812 13.460938 -28.484375 15.421875 -28.484375 Z M 19.46875 -12.9375 L 16.53125 -12.828125 C 14.0625 -12.765625 12.347656 -12.320312 11.390625 -11.5 C 10.429688 -10.6875 9.953125 -9.613281 9.953125 -8.28125 C 9.953125 -7.125 10.289062 -6.296875 10.96875 -5.796875 C 11.65625 -5.304688 12.550781 -5.0625 13.65625 -5.0625 C 15.28125 -5.0625 16.65625 -5.546875 17.78125 -6.515625 C 18.90625 -7.484375 19.46875 -8.859375 19.46875 -10.640625 Z M 19.46875 -12.9375 "/></g></g></g><g fill="#ffffff" fill-opacity="1"><g transform="translate(220.365591, 349.278464)"><g><path d="M 19.578125 -28.4375 C 19.953125 -28.4375 20.394531 -28.414062 20.90625 -28.375 C 21.414062 -28.332031 21.828125 -28.273438 22.140625 -28.203125 L 21.5625 -21.0625 C 21.3125 -21.144531 20.957031 -21.207031 20.5 -21.25 C 20.050781 -21.289062 19.660156 -21.3125 19.328125 -21.3125 C 18.335938 -21.3125 17.378906 -21.1875 16.453125 -20.9375 C 15.535156 -20.6875 14.707031 -20.28125 13.96875 -19.71875 C 13.238281 -19.164062 12.660156 -18.4375 12.234375 -17.53125 C 11.816406 -16.625 11.609375 -15.515625 11.609375 -14.203125 L 11.609375 0 L 4 0 L 4 -27.90625 L 9.765625 -27.90625 L 10.890625 -23.21875 L 11.265625 -23.21875 C 11.804688 -24.164062 12.488281 -25.035156 13.3125 -25.828125 C 14.132812 -26.617188 15.070312 -27.25 16.125 -27.71875 C 17.1875 -28.195312 18.335938 -28.4375 19.578125 -28.4375 Z M 19.578125 -28.4375 "/></g></g></g><g fill="#ffffff" fill-opacity="1"><g transform="translate(240.510465, 349.278464)"><g><path d="M 36.765625 -28.4375 C 39.929688 -28.4375 42.320312 -27.625 43.9375 -26 C 45.5625 -24.375 46.375 -21.773438 46.375 -18.203125 L 46.375 0 L 38.75 0 L 38.75 -16.296875 C 38.75 -18.296875 38.40625 -19.800781 37.71875 -20.8125 C 37.039062 -21.832031 35.984375 -22.34375 34.546875 -22.34375 C 32.535156 -22.34375 31.101562 -21.625 30.25 -20.1875 C 29.40625 -18.75 28.984375 -16.6875 28.984375 -14 L 28.984375 0 L 21.375 0 L 21.375 -16.296875 C 21.375 -17.628906 21.222656 -18.742188 20.921875 -19.640625 C 20.617188 -20.546875 20.160156 -21.222656 19.546875 -21.671875 C 18.929688 -22.117188 18.140625 -22.34375 17.171875 -22.34375 C 15.753906 -22.34375 14.640625 -21.988281 13.828125 -21.28125 C 13.023438 -20.570312 12.453125 -19.53125 12.109375 -18.15625 C 11.773438 -16.78125 11.609375 -15.101562 11.609375 -13.125 L 11.609375 0 L 4 0 L 4 -27.90625 L 9.8125 -27.90625 L 10.828125 -24.34375 L 11.265625 -24.34375 C 11.828125 -25.300781 12.535156 -26.078125 13.390625 -26.671875 C 14.242188 -27.273438 15.1875 -27.71875 16.21875 -28 C 17.257812 -28.289062 18.3125 -28.4375 19.375 -28.4375 C 21.414062 -28.4375 23.144531 -28.101562 24.5625 -27.4375 C 25.988281 -26.769531 27.085938 -25.738281 27.859375 -24.34375 L 28.53125 -24.34375 C 29.363281 -25.769531 30.539062 -26.804688 32.0625 -27.453125 C 33.582031 -28.109375 35.148438 -28.4375 36.765625 -28.4375 Z M 36.765625 -28.4375 "/></g></g></g><g fill="#ffffff" fill-opacity="1"><g transform="translate(287.636613, 349.278464)"><g><path d="M 15.421875 -28.484375 C 19.171875 -28.484375 22.039062 -27.664062 24.03125 -26.03125 C 26.03125 -24.40625 27.03125 -21.925781 27.03125 -18.59375 L 27.03125 0 L 21.71875 0 L 20.25 -3.796875 L 20.046875 -3.796875 C 19.242188 -2.796875 18.425781 -1.976562 17.59375 -1.34375 C 16.757812 -0.71875 15.800781 -0.253906 14.71875 0.046875 C 13.644531 0.347656 12.332031 0.5 10.78125 0.5 C 9.132812 0.5 7.65625 0.1875 6.34375 -0.4375 C 5.039062 -1.070312 4.015625 -2.039062 3.265625 -3.34375 C 2.515625 -4.65625 2.140625 -6.320312 2.140625 -8.34375 C 2.140625 -11.300781 3.179688 -13.484375 5.265625 -14.890625 C 7.347656 -16.296875 10.46875 -17.070312 14.625 -17.21875 L 19.46875 -17.375 L 19.46875 -18.59375 C 19.46875 -20.0625 19.082031 -21.132812 18.3125 -21.8125 C 17.550781 -22.5 16.488281 -22.84375 15.125 -22.84375 C 13.78125 -22.84375 12.457031 -22.648438 11.15625 -22.265625 C 9.863281 -21.878906 8.566406 -21.394531 7.265625 -20.8125 L 4.75 -25.96875 C 6.226562 -26.75 7.882812 -27.363281 9.71875 -27.8125 C 11.5625 -28.257812 13.460938 -28.484375 15.421875 -28.484375 Z M 19.46875 -12.9375 L 16.53125 -12.828125 C 14.0625 -12.765625 12.347656 -12.320312 11.390625 -11.5 C 10.429688 -10.6875 9.953125 -9.613281 9.953125 -8.28125 C 9.953125 -7.125 10.289062 -6.296875 10.96875 -5.796875 C 11.65625 -5.304688 12.550781 -5.0625 13.65625 -5.0625 C 15.28125 -5.0625 16.65625 -5.546875 17.78125 -6.515625 C 18.90625 -7.484375 19.46875 -8.859375 19.46875 -10.640625 Z M 19.46875 -12.9375 "/></g></g></g><g fill="#ffffff" fill-opacity="1"><g transform="translate(315.444061, 349.278464)"><g><path d="M 15.328125 0.5 C 12.566406 0.5 10.210938 0 8.265625 -1 C 6.316406 -2.007812 4.832031 -3.570312 3.8125 -5.6875 C 2.800781 -7.800781 2.296875 -10.507812 2.296875 -13.8125 C 2.296875 -17.21875 2.875 -20 4.03125 -22.15625 C 5.1875 -24.3125 6.789062 -25.894531 8.84375 -26.90625 C 10.90625 -27.925781 13.289062 -28.4375 16 -28.4375 C 17.925781 -28.4375 19.59375 -28.25 21 -27.875 C 22.40625 -27.5 23.632812 -27.050781 24.6875 -26.53125 L 22.4375 -20.640625 C 21.238281 -21.128906 20.125 -21.523438 19.09375 -21.828125 C 18.0625 -22.140625 17.03125 -22.296875 16 -22.296875 C 14.664062 -22.296875 13.554688 -21.984375 12.671875 -21.359375 C 11.796875 -20.734375 11.140625 -19.796875 10.703125 -18.546875 C 10.273438 -17.296875 10.0625 -15.734375 10.0625 -13.859375 C 10.0625 -12.003906 10.289062 -10.46875 10.75 -9.25 C 11.21875 -8.039062 11.894531 -7.140625 12.78125 -6.546875 C 13.664062 -5.960938 14.738281 -5.671875 16 -5.671875 C 17.582031 -5.671875 18.988281 -5.878906 20.21875 -6.296875 C 21.445312 -6.722656 22.644531 -7.320312 23.8125 -8.09375 L 23.8125 -1.578125 C 22.644531 -0.835938 21.425781 -0.304688 20.15625 0.015625 C 18.882812 0.335938 17.273438 0.5 15.328125 0.5 Z M 15.328125 0.5 "/></g></g></g><g fill="#ffffff" fill-opacity="1"><g transform="translate(338.658949, 349.278464)"><g><path d="M 0 -27.90625 L 8.34375 -27.90625 L 13.609375 -12.203125 C 13.773438 -11.703125 13.914062 -11.191406 14.03125 -10.671875 C 14.144531 -10.160156 14.242188 -9.628906 14.328125 -9.078125 C 14.410156 -8.535156 14.476562 -7.960938 14.53125 -7.359375 L 14.671875 -7.359375 C 14.773438 -8.265625 14.914062 -9.109375 15.09375 -9.890625 C 15.269531 -10.671875 15.488281 -11.441406 15.75 -12.203125 L 20.921875 -27.90625 L 29.078125 -27.90625 L 17.28125 3.5625 C 16.5625 5.5 15.625 7.109375 14.46875 8.390625 C 13.320312 9.679688 12.003906 10.648438 10.515625 11.296875 C 9.023438 11.953125 7.390625 12.28125 5.609375 12.28125 C 4.742188 12.28125 3.992188 12.234375 3.359375 12.140625 C 2.734375 12.046875 2.195312 11.953125 1.75 11.859375 L 1.75 5.8125 C 2.09375 5.894531 2.53125 5.96875 3.0625 6.03125 C 3.601562 6.101562 4.164062 6.140625 4.75 6.140625 C 5.8125 6.140625 6.722656 5.914062 7.484375 5.46875 C 8.253906 5.019531 8.894531 4.414062 9.40625 3.65625 C 9.925781 2.894531 10.335938 2.066406 10.640625 1.171875 L 11.078125 -0.203125 Z M 0 -27.90625 "/></g></g></g></svg>